<?xml version="1.0" encoding="UTF-8"?>
<svg xmlns="http://www.w3.org/2000/svg" width="264.000mm" height="136.200mm" viewBox="-883.905029 409.563965 264.000000 136.200073">
    <circle transform="matrix(1,0,0,-1,-855.905029,425.764008)" style="stroke:#000000;stroke-width:0.05mm;fill:none" r="2" cx="0" cy="0"/>
    <circle transform="matrix(1,0,0,-1,-751.905029,428.764008)" style="stroke:#000000;stroke-width:0.05mm;fill:none" r="2" cx="0" cy="0"/>
    <circle transform="matrix(1,0,0,-1,-647.905029,425.764069)" style="stroke:#000000;stroke-width:0.05mm;fill:none" r="2" cx="0" cy="0"/>
    <circle transform="matrix(1,0,0,-1,-865.905029,530.763977)" style="stroke:#000000;stroke-width:0.05mm;fill:none" r="1.25" cx="0" cy="0"/>
    <circle transform="matrix(1,0,0,-1,-751.905029,530.764038)" style="stroke:#000000;stroke-width:0.05mm;fill:none" r="1.25" cx="0" cy="0"/>
    <circle transform="matrix(1,0,0,-1,-637.905029,530.764099)" style="stroke:#000000;stroke-width:0.05mm;fill:none" r="1.25" cx="0" cy="0"/>
    <path transform="matrix(1,0,0,-1,-751.905029,473.264008)" style="stroke:#000000;stroke-width:0.05mm;fill:none" d="M130,63.700005L-130,63.700005C-131.104568,63.700005,-132,62.804573,-132,61.700005L-132,-70.499992C-132,-71.604561,-131.104568,-72.499992,-130,-72.499992L130,-72.499992C131.104568,-72.499992,132,-71.604561,132,-70.499992L132,61.700005C132,62.804573,131.104568,63.700005,130,63.700005z"/>
    <path transform="matrix(1,0,0,-1,-751.905029,473.264008)" style="stroke:#000000;stroke-width:0.05mm;fill:none" d="M-85.000008,27.500006L-85.000008,43.500004L-69.000008,43.500004L-69.000008,27.500006L-85.000008,27.500006z"/>
    <path transform="matrix(1,0,0,-1,-751.905029,473.264008)" style="stroke:#000000;stroke-width:0.05mm;fill:none" d="M-56.000004,27.500006L-56.000004,43.500004L-40.000004,43.500004L-40.000004,27.500006L-56.000004,27.500006z"/>
    <path transform="matrix(1,0,0,-1,-751.905029,473.264008)" style="stroke:#000000;stroke-width:0.05mm;fill:none" d="M-29.000006,14.500005L-29.000006,30.500006L-13.000005,30.500006L-13.000005,14.500005L-29.000006,14.500005z"/>
    <path transform="matrix(1,0,0,-1,-751.905029,473.264008)" style="stroke:#000000;stroke-width:0.05mm;fill:none" d="M-8,-41.499996L-8,-25.499994L8,-25.499994L8,-41.499996L-8,-41.499996z"/>
    <path transform="matrix(1,0,0,-1,-751.905029,473.264008)" style="stroke:#000000;stroke-width:0.05mm;fill:none" d="M11.999995,-5.499995L11.999995,10.500005L27.999994,10.500005L27.999994,-5.499995L11.999995,-5.499995z"/>
    <path transform="matrix(1,0,0,-1,-751.905029,473.264008)" style="stroke:#000000;stroke-width:0.05mm;fill:none" d="M11.999995,23.500006L11.999995,39.500004L27.999994,39.500004L27.999994,23.500006L11.999995,23.500006z"/>
    <path transform="matrix(1,0,0,-1,-751.905029,473.264008)" style="stroke:#000000;stroke-width:0.05mm;fill:none" d="M37.499996,8.500005L37.499996,24.500006L53.499996,24.500006L53.499996,8.500005L37.499996,8.500005z"/>
    <path transform="matrix(1,0,0,-1,-751.905029,473.264008)" style="stroke:#000000;stroke-width:0.05mm;fill:none" d="M66.499992,34.000004L66.499992,50.000004L82.499992,50.000004L82.499992,34.000004L66.499992,34.000004z"/>
    <path transform="matrix(1,0,0,-1,-751.905029,473.264008)" style="stroke:#000000;stroke-width:0.05mm;fill:none" d="M66.499992,5.000005L66.499992,21.000006L82.499992,21.000006L82.499992,5.000005L66.499992,5.000005z"/>
    <path transform="matrix(1,0,0,-1,-751.905029,473.264008)" style="stroke:#000000;stroke-width:0.05mm;fill:none" d="M91.999992,-9.499995L91.999992,6.500005L107.999992,6.500005L107.999992,-9.499995L91.999992,-9.499995z"/>
    <path transform="matrix(1,0,0,-1,-751.905029,473.264008)" style="stroke:#000000;stroke-width:0.05mm;fill:none" d="M107.999992,19.500006L91.999992,19.500006L91.999992,35.500004L107.999992,35.500004L107.999992,19.500006z"/>
    <path transform="matrix(1,0,0,-1,-751.905029,473.264008)" style="stroke:#000000;stroke-width:0.05mm;fill:none" d="M53.499996,37.500004L37.499996,37.500004L37.499996,53.500004L53.499996,53.500004L53.499996,37.500004z"/>
    <path transform="matrix(1,0,0,-1,-865.905029,415.764008)" style="stroke:#000000;stroke-width:0.05mm;fill:none" d="M1.25,0C1.25,-0.690356,0.690356,-1.25,0,-1.25"/>
    <path transform="matrix(1,0,0,-1,-865.905029,415.764008)" style="stroke:#000000;stroke-width:0.05mm;fill:none" d="M0,-1.25C-0.690356,-1.25,-1.25,-0.690356,-1.25,0"/>
    <path transform="matrix(1,0,0,-1,-865.905029,415.764008)" style="stroke:#000000;stroke-width:0.05mm;fill:none" d="M-1.25,0C-1.25,0.690356,-0.690356,1.25,0,1.25"/>
    <path transform="matrix(1,0,0,-1,-865.905029,415.764008)" style="stroke:#000000;stroke-width:0.05mm;fill:none" d="M0,1.25C0.690356,1.25,1.25,0.690356,1.25,0"/>
    <path transform="matrix(1,0,0,-1,-799.904968,415.764008)" style="stroke:#000000;stroke-width:0.05mm;fill:none" d="M2,0C2,-1.104569,1.104569,-2,0,-2"/>
    <path transform="matrix(1,0,0,-1,-799.904968,415.764008)" style="stroke:#000000;stroke-width:0.05mm;fill:none" d="M0,-2C-1.104569,-2,-2,-1.104569,-2,0"/>
    <path transform="matrix(1,0,0,-1,-799.904968,415.764008)" style="stroke:#000000;stroke-width:0.05mm;fill:none" d="M-2,0C-2,1.104569,-1.104569,2,0,2"/>
    <path transform="matrix(1,0,0,-1,-799.904968,415.764008)" style="stroke:#000000;stroke-width:0.05mm;fill:none" d="M0,2C1.104569,2,2,1.104569,2,0"/>
    <path transform="matrix(1,0,0,-1,-787.904968,415.764008)" style="stroke:#000000;stroke-width:0.05mm;fill:none" d="M2,0C2,-1.104569,1.104569,-2,0,-2"/>
    <path transform="matrix(1,0,0,-1,-787.904968,415.764008)" style="stroke:#000000;stroke-width:0.05mm;fill:none" d="M0,-2C-1.104569,-2,-2,-1.104569,-2,0"/>
    <path transform="matrix(1,0,0,-1,-787.904968,415.764008)" style="stroke:#000000;stroke-width:0.05mm;fill:none" d="M-2,0C-2,1.104569,-1.104569,2,0,2"/>
    <path transform="matrix(1,0,0,-1,-787.904968,415.764008)" style="stroke:#000000;stroke-width:0.05mm;fill:none" d="M0,2C1.104569,2,2,1.104569,2,0"/>
    <path transform="matrix(1,0,0,-1,-774.905029,415.764008)" style="stroke:#000000;stroke-width:0.05mm;fill:none" d="M2,0C2,-1.104569,1.104569,-2,0,-2"/>
    <path transform="matrix(1,0,0,-1,-774.905029,415.764008)" style="stroke:#000000;stroke-width:0.05mm;fill:none" d="M0,-2C-1.104569,-2,-2,-1.104569,-2,0"/>
    <path transform="matrix(1,0,0,-1,-774.905029,415.764008)" style="stroke:#000000;stroke-width:0.05mm;fill:none" d="M-2,0C-2,1.104569,-1.104569,2,0,2"/>
    <path transform="matrix(1,0,0,-1,-774.905029,415.764008)" style="stroke:#000000;stroke-width:0.05mm;fill:none" d="M0,2C1.104569,2,2,1.104569,2,0"/>
    <path transform="matrix(1,0,0,-1,-762.905029,415.764008)" style="stroke:#000000;stroke-width:0.05mm;fill:none" d="M2,0C2,-1.104569,1.104569,-2,0,-2"/>
    <path transform="matrix(1,0,0,-1,-762.905029,415.764008)" style="stroke:#000000;stroke-width:0.05mm;fill:none" d="M0,-2C-1.104569,-2,-2,-1.104569,-2,0"/>
    <path transform="matrix(1,0,0,-1,-762.905029,415.764008)" style="stroke:#000000;stroke-width:0.05mm;fill:none" d="M-2,0C-2,1.104569,-1.104569,2,0,2"/>
    <path transform="matrix(1,0,0,-1,-762.905029,415.764008)" style="stroke:#000000;stroke-width:0.05mm;fill:none" d="M0,2C1.104569,2,2,1.104569,2,0"/>
    <path transform="matrix(1,0,0,-1,-739.905029,415.764008)" style="stroke:#000000;stroke-width:0.05mm;fill:none" d="M1.25,0C1.25,-0.690356,0.690356,-1.25,0,-1.25"/>
    <path transform="matrix(1,0,0,-1,-739.905029,415.764008)" style="stroke:#000000;stroke-width:0.05mm;fill:none" d="M0,-1.25C-0.690356,-1.25,-1.25,-0.690356,-1.25,0"/>
    <path transform="matrix(1,0,0,-1,-739.905029,415.764008)" style="stroke:#000000;stroke-width:0.05mm;fill:none" d="M-1.25,0C-1.25,0.690356,-0.690356,1.25,0,1.25"/>
    <path transform="matrix(1,0,0,-1,-739.905029,415.764008)" style="stroke:#000000;stroke-width:0.05mm;fill:none" d="M0,1.25C0.690356,1.25,1.25,0.690356,1.25,0"/>
    <path transform="matrix(1,0,0,-1,-637.905029,415.764069)" style="stroke:#000000;stroke-width:0.05mm;fill:none" d="M1.25,0C1.25,-0.690356,0.690356,-1.25,0,-1.25"/>
    <path transform="matrix(1,0,0,-1,-637.905029,415.764069)" style="stroke:#000000;stroke-width:0.05mm;fill:none" d="M0,-1.25C-0.690356,-1.25,-1.25,-0.690356,-1.25,0"/>
    <path transform="matrix(1,0,0,-1,-637.905029,415.764069)" style="stroke:#000000;stroke-width:0.05mm;fill:none" d="M-1.25,0C-1.25,0.690356,-0.690356,1.25,0,1.25"/>
    <path transform="matrix(1,0,0,-1,-637.905029,415.764069)" style="stroke:#000000;stroke-width:0.05mm;fill:none" d="M0,1.25C0.690356,1.25,1.25,0.690356,1.25,0"/>
</svg>
