<?xml version="1.0" encoding="UTF-8"?>
<svg xmlns="http://www.w3.org/2000/svg" width="216.001mm" height="95.000mm" viewBox="-708.000610 402.499969 216.001282 95.000061">
    <circle transform="matrix(1,0,0,-1,-640.00061,408.5)" style="stroke:#000000;stroke-width:0.05mm;fill:none" r="2" cx="0" cy="0"/>
    <circle transform="matrix(1,0,0,-1,-630.00061,408.5)" style="stroke:#000000;stroke-width:0.05mm;fill:none" r="2" cx="0" cy="0"/>
    <circle transform="matrix(1,0,0,-1,-620.00061,408.5)" style="stroke:#000000;stroke-width:0.05mm;fill:none" r="2" cx="0" cy="0"/>
    <circle transform="matrix(1,0,0,-1,-580.00061,408.5)" style="stroke:#000000;stroke-width:0.05mm;fill:none" r="2" cx="0" cy="0"/>
    <circle transform="matrix(1,0,0,-1,-570.000488,408.500092)" style="stroke:#000000;stroke-width:0.05mm;fill:none" r="2" cx="0" cy="0"/>
    <circle transform="matrix(1,0,0,-1,-702.00061,491.5)" style="stroke:#000000;stroke-width:0.05mm;fill:none" r="1.2" cx="0" cy="0"/>
    <circle transform="matrix(1,0,0,-1,-600.00061,491.499939)" style="stroke:#000000;stroke-width:0.05mm;fill:none" r="1.2" cx="0" cy="0"/>
    <circle transform="matrix(1,0,0,-1,-589.500732,408.499939)" style="stroke:#000000;stroke-width:0.05mm;fill:none" r="1.2" cx="0" cy="0"/>
    <circle transform="matrix(1,0,0,-1,-498.00061,408.500031)" style="stroke:#000000;stroke-width:0.05mm;fill:none" r="1.2" cx="0" cy="0"/>
    <circle transform="matrix(1,0,0,-1,-498.00058,491.5)" style="stroke:#000000;stroke-width:0.05mm;fill:none" r="1.2" cx="0" cy="0"/>
    <circle transform="matrix(1,0,0,-1,-702.00061,408.499969)" style="stroke:#000000;stroke-width:0.05mm;fill:none" r="1.2" cx="0" cy="0"/>
    <path transform="matrix(1,0,0,-1,-601.400513,450.311462)" style="stroke:#000000;stroke-width:0.05mm;fill:none" d="M-82.598656,-13.684216L-97.860313,-9.594871"/>
    <path transform="matrix(1,0,0,-1,-601.400513,450.311462)" style="stroke:#000000;stroke-width:0.05mm;fill:none" d="M-97.860313,-9.594871L-93.770996,5.666767"/>
    <path transform="matrix(1,0,0,-1,-601.400513,450.311462)" style="stroke:#000000;stroke-width:0.05mm;fill:none" d="M-78.509308,1.577394L-93.770996,5.666767"/>
    <path transform="matrix(1,0,0,-1,-601.400513,450.311462)" style="stroke:#000000;stroke-width:0.05mm;fill:none" d="M-82.598656,-13.684216L-78.509308,1.577394"/>
    <path transform="matrix(1,0,0,-1,-601.400513,450.311462)" style="stroke:#000000;stroke-width:0.05mm;fill:none" d="M-57.833603,0.286066L-73.09539,4.375463"/>
    <path transform="matrix(1,0,0,-1,-601.400513,450.311462)" style="stroke:#000000;stroke-width:0.05mm;fill:none" d="M-73.09539,4.375463L-69.006073,19.637022"/>
    <path transform="matrix(1,0,0,-1,-601.400513,450.311462)" style="stroke:#000000;stroke-width:0.05mm;fill:none" d="M-53.744282,15.547626L-69.006073,19.637022"/>
    <path transform="matrix(1,0,0,-1,-601.400513,450.311462)" style="stroke:#000000;stroke-width:0.05mm;fill:none" d="M-57.833603,0.286066L-53.744282,15.547626"/>
    <path transform="matrix(1,0,0,-1,-601.400513,450.311462)" style="stroke:#000000;stroke-width:0.05mm;fill:none" d="M104.500053,-4.363906L88.700104,-4.363906"/>
    <path transform="matrix(1,0,0,-1,-601.400513,450.311462)" style="stroke:#000000;stroke-width:0.05mm;fill:none" d="M104.500053,-20.163906L104.500053,-4.363906"/>
    <path transform="matrix(1,0,0,-1,-601.400513,450.311462)" style="stroke:#000000;stroke-width:0.05mm;fill:none" d="M104.500053,-20.163906L88.700104,-20.163906"/>
    <path transform="matrix(1,0,0,-1,-601.400513,450.311462)" style="stroke:#000000;stroke-width:0.05mm;fill:none" d="M88.700104,-20.163906L88.700104,-4.363906"/>
    <path transform="matrix(1,0,0,-1,-601.400513,450.311462)" style="stroke:#000000;stroke-width:0.05mm;fill:none" d="M104.500053,17.861214L88.700104,17.861214"/>
    <path transform="matrix(1,0,0,-1,-601.400513,450.311462)" style="stroke:#000000;stroke-width:0.05mm;fill:none" d="M104.500053,2.061341L104.500053,17.861214"/>
    <path transform="matrix(1,0,0,-1,-601.400513,450.311462)" style="stroke:#000000;stroke-width:0.05mm;fill:none" d="M104.500053,2.061341L88.700104,2.061341"/>
    <path transform="matrix(1,0,0,-1,-601.400513,450.311462)" style="stroke:#000000;stroke-width:0.05mm;fill:none" d="M88.700104,2.061341L88.700104,17.861214"/>
    <path transform="matrix(1,0,0,-1,-601.400513,450.311462)" style="stroke:#000000;stroke-width:0.05mm;fill:none" d="M82.275261,-1.188494L66.475235,-1.188494"/>
    <path transform="matrix(1,0,0,-1,-601.400513,450.311462)" style="stroke:#000000;stroke-width:0.05mm;fill:none" d="M82.275261,-16.988493L82.275261,-1.188494"/>
    <path transform="matrix(1,0,0,-1,-601.400513,450.311462)" style="stroke:#000000;stroke-width:0.05mm;fill:none" d="M82.275261,-16.988493L66.475235,-16.988493"/>
    <path transform="matrix(1,0,0,-1,-601.400513,450.311462)" style="stroke:#000000;stroke-width:0.05mm;fill:none" d="M66.475235,-16.988493L66.475235,-1.188494"/>
    <path transform="matrix(1,0,0,-1,-601.400513,450.311462)" style="stroke:#000000;stroke-width:0.05mm;fill:none" d="M82.275314,21.036169L66.475365,21.036169"/>
    <path transform="matrix(1,0,0,-1,-601.400513,450.311462)" style="stroke:#000000;stroke-width:0.05mm;fill:none" d="M82.275314,5.236246L82.275314,21.036169"/>
    <path transform="matrix(1,0,0,-1,-601.400513,450.311462)" style="stroke:#000000;stroke-width:0.05mm;fill:none" d="M82.275314,5.236246L66.475365,5.236246"/>
    <path transform="matrix(1,0,0,-1,-601.400513,450.311462)" style="stroke:#000000;stroke-width:0.05mm;fill:none" d="M66.475365,5.236246L66.475365,21.036169"/>
    <path transform="matrix(1,0,0,-1,-601.400513,450.311462)" style="stroke:#000000;stroke-width:0.05mm;fill:none" d="M82.299896,43.261494L66.49987,43.261494"/>
    <path transform="matrix(1,0,0,-1,-601.400513,450.311462)" style="stroke:#000000;stroke-width:0.05mm;fill:none" d="M82.299896,27.461418L82.299896,43.261494"/>
    <path transform="matrix(1,0,0,-1,-601.400513,450.311462)" style="stroke:#000000;stroke-width:0.05mm;fill:none" d="M82.299896,27.461418L66.49987,27.461418"/>
    <path transform="matrix(1,0,0,-1,-601.400513,450.311462)" style="stroke:#000000;stroke-width:0.05mm;fill:none" d="M66.49987,27.461418L66.49987,43.261494"/>
    <path transform="matrix(1,0,0,-1,-601.400513,450.311462)" style="stroke:#000000;stroke-width:0.05mm;fill:none" d="M60.051231,21.035891L44.251308,21.035891"/>
    <path transform="matrix(1,0,0,-1,-601.400513,450.311462)" style="stroke:#000000;stroke-width:0.05mm;fill:none" d="M60.051231,5.235789L60.051231,21.035891"/>
    <path transform="matrix(1,0,0,-1,-601.400513,450.311462)" style="stroke:#000000;stroke-width:0.05mm;fill:none" d="M60.051231,5.235789L44.251308,5.235789"/>
    <path transform="matrix(1,0,0,-1,-601.400513,450.311462)" style="stroke:#000000;stroke-width:0.05mm;fill:none" d="M44.251308,5.235789L44.251308,21.035891"/>
    <path transform="matrix(1,0,0,-1,-601.400513,450.311462)" style="stroke:#000000;stroke-width:0.05mm;fill:none" d="M60.05019,-1.188697L44.250141,-1.188697"/>
    <path transform="matrix(1,0,0,-1,-601.400513,450.311462)" style="stroke:#000000;stroke-width:0.05mm;fill:none" d="M60.05019,-16.988722L60.05019,-1.188697"/>
    <path transform="matrix(1,0,0,-1,-601.400513,450.311462)" style="stroke:#000000;stroke-width:0.05mm;fill:none" d="M60.05019,-16.988722L44.250141,-16.988722"/>
    <path transform="matrix(1,0,0,-1,-601.400513,450.311462)" style="stroke:#000000;stroke-width:0.05mm;fill:none" d="M44.250141,-16.988722L44.250141,-1.188697"/>
    <path transform="matrix(1,0,0,-1,-601.400513,450.311462)" style="stroke:#000000;stroke-width:0.05mm;fill:none" d="M37.825249,-7.538735L22.025196,-7.538735"/>
    <path transform="matrix(1,0,0,-1,-601.400513,450.311462)" style="stroke:#000000;stroke-width:0.05mm;fill:none" d="M37.825249,-23.338684L37.825249,-7.538735"/>
    <path transform="matrix(1,0,0,-1,-601.400513,450.311462)" style="stroke:#000000;stroke-width:0.05mm;fill:none" d="M37.825249,-23.338684L22.025196,-23.338684"/>
    <path transform="matrix(1,0,0,-1,-601.400513,450.311462)" style="stroke:#000000;stroke-width:0.05mm;fill:none" d="M22.025196,-23.338684L22.025196,-7.538735"/>
    <path transform="matrix(1,0,0,-1,-601.400513,450.311462)" style="stroke:#000000;stroke-width:0.05mm;fill:none" d="M37.825222,14.68631L22.025196,14.68631"/>
    <path transform="matrix(1,0,0,-1,-601.400513,450.311462)" style="stroke:#000000;stroke-width:0.05mm;fill:none" d="M37.825222,-1.113767L37.825222,14.68631"/>
    <path transform="matrix(1,0,0,-1,-601.400513,450.311462)" style="stroke:#000000;stroke-width:0.05mm;fill:none" d="M37.825222,-1.113767L22.025196,-1.113767"/>
    <path transform="matrix(1,0,0,-1,-601.400513,450.311462)" style="stroke:#000000;stroke-width:0.05mm;fill:none" d="M22.025196,-1.113767L22.025196,14.68631"/>
    <path transform="matrix(1,0,0,-1,-601.400513,450.311462)" style="stroke:#000000;stroke-width:0.05mm;fill:none" d="M-39.139458,-9.217576L-54.401093,-5.128231"/>
    <path transform="matrix(1,0,0,-1,-601.400513,450.311462)" style="stroke:#000000;stroke-width:0.05mm;fill:none" d="M-43.228828,-24.479261L-39.139458,-9.217576"/>
    <path transform="matrix(1,0,0,-1,-601.400513,450.311462)" style="stroke:#000000;stroke-width:0.05mm;fill:none" d="M-43.228828,-24.479261L-58.490463,-20.389944"/>
    <path transform="matrix(1,0,0,-1,-601.400513,450.311462)" style="stroke:#000000;stroke-width:0.05mm;fill:none" d="M-58.490463,-20.389944L-54.401093,-5.128231"/>
    <path transform="matrix(1,0,0,-1,-601.400513,450.311462)" style="stroke:#000000;stroke-width:0.05mm;fill:none" d="M-58.824623,-3.502616L-74.086258,0.58673"/>
    <path transform="matrix(1,0,0,-1,-601.400513,450.311462)" style="stroke:#000000;stroke-width:0.05mm;fill:none" d="M-62.913971,-18.764198L-58.824623,-3.502616"/>
    <path transform="matrix(1,0,0,-1,-601.400513,450.311462)" style="stroke:#000000;stroke-width:0.05mm;fill:none" d="M-62.913971,-18.764198L-78.175606,-14.674881"/>
    <path transform="matrix(1,0,0,-1,-601.400513,450.311462)" style="stroke:#000000;stroke-width:0.05mm;fill:none" d="M-78.175606,-14.674881L-74.086258,0.58673"/>
    <path transform="matrix(1,0,0,-1,-601.400513,450.311462)" style="stroke:#000000;stroke-width:0.05mm;fill:none" d="M-92.709587,9.630225L-77.447952,5.540879"/>
    <path transform="matrix(1,0,0,-1,-601.400513,450.311462)" style="stroke:#000000;stroke-width:0.05mm;fill:none" d="M-88.620216,24.891962L-92.709587,9.630225"/>
    <path transform="matrix(1,0,0,-1,-601.400513,450.311462)" style="stroke:#000000;stroke-width:0.05mm;fill:none" d="M-88.620216,24.891962L-73.358612,20.802616"/>
    <path transform="matrix(1,0,0,-1,-601.400513,450.311462)" style="stroke:#000000;stroke-width:0.05mm;fill:none" d="M-73.358612,20.802616L-77.447952,5.540879"/>
    <path transform="matrix(1,0,0,-1,-601.400513,450.311462)" style="stroke:#000000;stroke-width:0.05mm;fill:none" d="M-106.262611,43.795433C-106.486,43.157841,-106.600098,42.487099,-106.600098,41.811504"/>
    <path transform="matrix(1,0,0,-1,-601.400513,450.311462)" style="stroke:#000000;stroke-width:0.05mm;fill:none" d="M-106.600105,41.811504L-106.600105,-41.18856"/>
    <path transform="matrix(1,0,0,-1,-601.400513,450.311462)" style="stroke:#000000;stroke-width:0.05mm;fill:none" d="M-106.600105,-41.18856C-106.600105,-43.394428,-105.389717,-45.422409,-103.448212,-46.469498"/>
    <path transform="matrix(1,0,0,-1,-601.400513,450.311462)" style="stroke:#000000;stroke-width:0.05mm;fill:none" d="M-103.448204,-46.469505C-102.573074,-46.941479,-101.594376,-47.188572,-100.60009,-47.188572"/>
    <path transform="matrix(1,0,0,-1,-601.400513,450.311462)" style="stroke:#000000;stroke-width:0.05mm;fill:none" d="M-100.60009,-47.18856L103.401192,-47.18856"/>
    <path transform="matrix(1,0,0,-1,-601.400513,450.311462)" style="stroke:#000000;stroke-width:0.05mm;fill:none" d="M103.401192,-47.18856C106.714905,-47.18856,109.401192,-44.502266,109.401192,-41.18856"/>
    <path transform="matrix(1,0,0,-1,-601.400513,450.311462)" style="stroke:#000000;stroke-width:0.05mm;fill:none" d="M109.401192,41.811504L109.401192,-41.18856"/>
    <path transform="matrix(1,0,0,-1,-601.400513,450.311462)" style="stroke:#000000;stroke-width:0.05mm;fill:none" d="M109.401192,41.811504C109.401192,45.125214,106.714905,47.811504,103.401192,47.811504"/>
    <path transform="matrix(1,0,0,-1,-601.400513,450.311462)" style="stroke:#000000;stroke-width:0.05mm;fill:none" d="M-100.600105,47.811504L103.401192,47.811504"/>
    <path transform="matrix(1,0,0,-1,-601.400513,450.311462)" style="stroke:#000000;stroke-width:0.05mm;fill:none" d="M-100.600105,47.811504C-103.149055,47.811504,-105.419792,46.201012,-106.262619,43.795433"/>
</svg>
