<?xml version="1.0" encoding="UTF-8" standalone="no"?>
<svg
   viewBox="0 0 793.7007874015749 1122.5196850393702"
   width="793.7007874015749"
   height="1122.5196850393702"
   version="1.1"
   id="svg23786"
   sodipodi:docname="mirror_art.svg"
   inkscape:version="1.1 (c68e22c387, 2021-05-23)"
   xmlns:inkscape="http://www.inkscape.org/namespaces/inkscape"
   xmlns:sodipodi="http://sodipodi.sourceforge.net/DTD/sodipodi-0.dtd"
   xmlns="http://www.w3.org/2000/svg"
   xmlns:svg="http://www.w3.org/2000/svg">
  <sodipodi:namedview
     id="namedview23788"
     pagecolor="#ffffff"
     bordercolor="#666666"
     borderopacity="1.0"
     inkscape:pageshadow="2"
     inkscape:pageopacity="0.0"
     inkscape:pagecheckerboard="0"
     showgrid="false"
     inkscape:zoom="0.67081231"
     inkscape:cx="397.27953"
     inkscape:cy="561.25983"
     inkscape:window-width="1920"
     inkscape:window-height="1137"
     inkscape:window-x="-8"
     inkscape:window-y="1192"
     inkscape:window-maximized="1"
     inkscape:current-layer="g23766" />
  <desc
     id="desc23326">mirrortop.dxf - scale = 1.0, origin = (0.0, 0.0), method = manual</desc>
  <defs
     id="defs23340">
    <marker
       id="DistanceX"
       orient="auto"
       refX="0.0"
       refY="0.0"
       style="overflow:visible">
      <path
         d="M 3,-3 L -3,3 M 0,-5 L  0,5"
         style="stroke:#000000; stroke-width:0.5"
         id="path23328" />
    </marker>
    <pattern
       id="Hatch"
       patternUnits="userSpaceOnUse"
       width="8"
       height="8"
       x="0"
       y="0">
      <path
         d="M8 4 l-4,4"
         stroke="#000000"
         stroke-width="0.25"
         linecap="square"
         id="path23331" />
      <path
         d="M6 2 l-4,4"
         stroke="#000000"
         stroke-width="0.25"
         linecap="square"
         id="path23333" />
      <path
         d="M4 0 l-4,4"
         stroke="#000000"
         stroke-width="0.25"
         linecap="square"
         id="path23335" />
    </pattern>
    <symbol
       id="*MODEL_SPACE" />
    <symbol
       id="*PAPER_SPACE" />
  </defs>
  <g
     inkscape:groupmode="layer"
     inkscape:label="0"
     id="g23342" />
  <g
     inkscape:groupmode="layer"
     inkscape:label="SECTION_CUTTING_LINE"
     id="g23344" />
  <g
     inkscape:groupmode="layer"
     inkscape:label="DETAIL_VIEW_BORDER"
     id="g23346" />
  <g
     inkscape:groupmode="layer"
     inkscape:label="DETAIL_VIEW_PARENT_BORDER"
     id="g23348" />
  <g
     inkscape:groupmode="layer"
     inkscape:label="TEXT"
     id="g23350" />
  <g
     inkscape:groupmode="layer"
     inkscape:label="SKETCHED_GEOMETRY"
     id="g23352" />
  <g
     inkscape:groupmode="layer"
     inkscape:label="VIRTUAL_SHARPS"
     id="g23354" />
  <g
     inkscape:groupmode="layer"
     inkscape:label="CENTERLINES"
     id="g23356" />
  <g
     inkscape:groupmode="layer"
     inkscape:label="CENTERMARKS"
     id="g23358" />
  <g
     inkscape:groupmode="layer"
     inkscape:label="TABLES"
     id="g23360" />
  <g
     inkscape:groupmode="layer"
     inkscape:label="IMAGES"
     id="g23362" />
  <g
     inkscape:groupmode="layer"
     inkscape:label="ANNOTATION_LINES"
     id="g23364" />
  <g
     inkscape:groupmode="layer"
     inkscape:label="ANNOTATION_TEXT"
     id="g23366" />
  <g
     inkscape:groupmode="layer"
     inkscape:label="SIDE_THREAD_SYMBOLS"
     id="g23368" />
  <g
     inkscape:groupmode="layer"
     inkscape:label="SIDE_THREAD_SYMBOLS_HIDDEN"
     id="g23370" />
  <g
     inkscape:groupmode="layer"
     inkscape:label="SURFACE_THREAD_SYMBOLS"
     id="g23372" />
  <g
     inkscape:groupmode="layer"
     inkscape:label="SURFACE_THREAD_SYMBOLS_ON_"
     id="g23374" />
  <g
     inkscape:groupmode="layer"
     inkscape:label="SURFACE_THREAD_SYMBOLS_HID"
     id="g23376" />
  <g
     inkscape:groupmode="layer"
     inkscape:label="BLIND_THREAD_SYMBOLS"
     id="g23378" />
  <g
     inkscape:groupmode="layer"
     inkscape:label="BLIND_THREAD_SYMBOLS_HIDDE"
     id="g23380" />
  <g
     inkscape:groupmode="layer"
     inkscape:label="EXPLODE_LINES"
     id="g23382" />
  <g
     inkscape:groupmode="layer"
     inkscape:label="HIDDEN_EXPLODE_LINES"
     id="g23384" />
  <g
     inkscape:groupmode="layer"
     inkscape:label="BREAK_LINES"
     id="g23386" />
  <g
     inkscape:groupmode="layer"
     inkscape:label="SHEETMETAL_BEND_LINES_UP"
     id="g23388" />
  <g
     inkscape:groupmode="layer"
     inkscape:label="SHEETMETAL_BEND_LINES_DOWN"
     id="g23390" />
  <g
     inkscape:groupmode="layer"
     inkscape:label="SHEETMETAL_BEND_TANGENT_LI"
     id="g23392" />
  <g
     inkscape:groupmode="layer"
     inkscape:label="SHEETMETAL_CUT_LINES"
     id="g23394" />
  <g
     inkscape:groupmode="layer"
     inkscape:label="REGION_ASSOC_POINTS"
     id="g23396" />
  <g
     inkscape:groupmode="layer"
     inkscape:label="PATTERN_CENTERLINES"
     id="g23398" />
  <g
     inkscape:groupmode="layer"
     inkscape:label="HIDDEN"
     id="g23400" />
  <g
     inkscape:groupmode="layer"
     inkscape:label="VISIBLE"
     id="g23766">
    <g
       id="g24035"
       transform="rotate(90,421.13115,558.27848)">
      <path
         d="m 795.50462,434.32907 a 4.535435,4.535435 0 1 0 -9.07087,0 4.535435,4.535435 0 1 0 9.07087,0 z"
         style="fill:none;stroke:#000000"
         id="path23402" />
      <path
         d="m 793.45882,410.4584 a 24.000151,24.000151 0 0 0 -2.68136,-0.12871"
         style="fill:none;stroke:#000000"
         id="path23404" />
      <path
         style="fill:none;stroke:#000000"
         d="M 790.77728,410.32941 H 23.161277"
         id="path23406" />
      <path
         style="fill:none;stroke:#000000"
         d="m 23.161277,410.32941 v 0"
         id="path23408" />
      <path
         d="m 23.160978,410.3298 a 24.000038,24.000038 0 0 0 -2.683814,0.12896"
         style="fill:none;stroke:#000000"
         id="path23410" />
      <path
         style="fill:none;stroke:#000000"
         d="m 20.477277,410.45841 -2.252,0.344"
         id="path23412" />
      <path
         d="m 18.224892,410.80262 a 24.000038,24.000038 0 0 0 -0.187751,0.0387"
         style="fill:none;stroke:#000000"
         id="path23414" />
      <path
         style="fill:none;stroke:#000000"
         d="m 18.037277,410.84141 -2.079,0.534"
         id="path23416" />
      <path
         d="m 15.958543,411.37579 a 24.000038,24.000038 0 0 0 -0.251367,0.0783"
         style="fill:none;stroke:#000000"
         id="path23418" />
      <path
         style="fill:none;stroke:#000000"
         d="m 15.707277,411.45441 -1.96,0.717"
         id="path23420" />
      <path
         d="m 13.747528,412.17138 a 24.000038,24.000038 0 0 0 -0.234469,0.099"
         style="fill:none;stroke:#000000"
         id="path23422" />
      <path
         style="fill:none;stroke:#000000"
         d="m 13.513277,412.27041 -1.898,0.914"
         id="path23424" />
      <path
         d="m 11.614864,413.18476 a 24.000038,24.000038 0 0 0 -0.164388,0.0891"
         style="fill:none;stroke:#000000"
         id="path23426" />
      <path
         style="fill:none;stroke:#000000"
         d="m 11.450277,413.27341 -1.8580003,1.13"
         id="path23428" />
      <path
         d="m 9.5918647,414.40296 a 24.000038,24.000038 0 0 0 -0.078889,0.0532"
         style="fill:none;stroke:#000000"
         id="path23430" />
      <path
         style="fill:none;stroke:#000000"
         d="m 9.5132767,414.45641 -1.802,1.347"
         id="path23432" />
      <path
         style="fill:none;stroke:#000000"
         d="m 7.7112767,415.80341 -0.016,0.013"
         id="path23434" />
      <path
         style="fill:none;stroke:#000000"
         d="m 7.6952767,415.81641 -1.697,1.542"
         id="path23436" />
      <path
         style="fill:none;stroke:#000000"
         d="m 5.9982767,417.35841 -1.541,1.696"
         id="path23438" />
      <path
         style="fill:none;stroke:#000000"
         d="m 4.4572767,419.05441 -0.014,0.018"
         id="path23440" />
      <path
         style="fill:none;stroke:#000000"
         d="m 4.4432767,419.07241 -1.347,1.8"
         id="path23442" />
      <path
         d="m 3.0964947,420.87249 a 24.000038,24.000038 0 0 0 -0.053993,0.0801"
         style="fill:none;stroke:#000000"
         id="path23444" />
      <path
         style="fill:none;stroke:#000000"
         d="m 3.0422767,420.95241 -1.126,1.853"
         id="path23446" />
      <path
         d="m 1.9165047,422.8057 a 24.000038,24.000038 0 0 0 -0.094577,0.1745"
         style="fill:none;stroke:#000000"
         id="path23448" />
      <path
         style="fill:none;stroke:#000000"
         d="m 1.8222767,422.98041 -0.91,1.889"
         id="path23450" />
      <path
         d="m 0.9119127,424.86967 a 24.000038,24.000038 0 0 0 -0.101655,0.24064"
         style="fill:none;stroke:#000000"
         id="path23452" />
      <path
         style="fill:none;stroke:#000000"
         d="m 0.8102767,425.11041 -0.716,1.958"
         id="path23454" />
      <path
         d="m 0.0938437,427.06805 a 24.000038,24.000038 0 0 0 -0.077533,0.24894"
         style="fill:none;stroke:#000000"
         id="path23456" />
      <path
         style="fill:none;stroke:#000000"
         d="m 0.0162767,427.31741 -0.535,2.08"
         id="path23458" />
      <path
         d="m -0.5187473,429.39746 a 24.000038,24.000038 0 0 0 -0.038323,0.18619"
         style="fill:none;stroke:#000000"
         id="path23460" />
      <path
         style="fill:none;stroke:#000000"
         d="m -0.5567233,429.58341 -0.345,2.256"
         id="path23462" />
      <path
         d="m -0.9013753,431.83907 a 24.000038,24.000038 0 0 0 -0.128752,2.68174"
         style="fill:none;stroke:#000000"
         id="path23464" />
      <path
         style="fill:none;stroke:#000000"
         d="m -1.0307233,434.52041 v 311.619"
         id="path23466" />
      <path
         d="m -1.0300893,746.13731 a 24,24 0 0 0 0.128834,2.68251"
         style="fill:none;stroke:#000000"
         id="path23468" />
      <path
         style="fill:none;stroke:#000000"
         d="m -0.9017233,748.81941 0.345,2.25"
         id="path23470" />
      <path
         d="m -0.5571683,751.07378 a 24,24 0 0 0 0.038589,0.18748"
         style="fill:none;stroke:#000000"
         id="path23472" />
      <path
         style="fill:none;stroke:#000000"
         d="m -0.5187233,751.25941 0.535,2.08"
         id="path23474" />
      <path
         d="m 0.0161617,753.3405 a 24,24 0 0 0 0.077896,0.25011"
         style="fill:none;stroke:#000000"
         id="path23476" />
      <path
         style="fill:none;stroke:#000000"
         d="m 0.0942767,753.58941 0.716,1.96"
         id="path23478" />
      <path
         d="m 0.8099647,755.54699 a 24,24 0 0 0 0.102315,0.24221"
         style="fill:none;stroke:#000000"
         id="path23480" />
      <path
         style="fill:none;stroke:#000000"
         d="m 0.9122767,755.78941 0.909,1.89"
         id="path23482" />
      <path
         d="m 1.8217217,757.67745 a 24,24 0 0 0 0.095018,0.17531"
         style="fill:none;stroke:#000000"
         id="path23484" />
      <path
         style="fill:none;stroke:#000000"
         d="m 1.9162767,757.84941 1.126,1.86"
         id="path23486" />
      <path
         d="m 3.0420727,759.70483 a 24,24 0 0 0 0.054899,0.0814"
         style="fill:none;stroke:#000000"
         id="path23488" />
      <path
         style="fill:none;stroke:#000000"
         d="m 3.0972767,759.78941 1.345,1.8"
         id="path23490" />
      <path
         style="fill:none;stroke:#000000"
         d="m 4.4422767,761.58941 0.015,0.01"
         id="path23492" />
      <path
         style="fill:none;stroke:#000000"
         d="m 4.4572767,761.59941 1.541,1.7"
         id="path23494" />
      <path
         style="fill:none;stroke:#000000"
         d="m 5.9982767,763.29941 1.696,1.54"
         id="path23496" />
      <path
         style="fill:none;stroke:#000000"
         d="m 7.6942767,764.83941 0.018,0.02"
         id="path23498" />
      <path
         style="fill:none;stroke:#000000"
         d="m 7.7122767,764.85941 1.8,1.34"
         id="path23500" />
      <path
         d="m 9.5123297,766.20148 a 24,24 0 0 0 0.080236,0.0541"
         style="fill:none;stroke:#000000"
         id="path23502" />
      <path
         style="fill:none;stroke:#000000"
         d="m 9.5922767,766.25941 1.8580003,1.12"
         id="path23504" />
      <path
         d="m 11.450363,767.38415 a 24,24 0 0 0 0.164622,0.0892"
         style="fill:none;stroke:#000000"
         id="path23506" />
      <path
         style="fill:none;stroke:#000000"
         d="m 11.615277,767.46941 1.897,0.92"
         id="path23508" />
      <path
         d="m 13.512322,768.38733 a 24,24 0 0 0 0.236023,0.0997"
         style="fill:none;stroke:#000000"
         id="path23510" />
      <path
         style="fill:none;stroke:#000000"
         d="m 13.748277,768.48941 1.958,0.71"
         id="path23512" />
      <path
         d="m 15.706359,769.20374 a 24,24 0 0 0 0.25296,0.0788"
         style="fill:none;stroke:#000000"
         id="path23514" />
      <path
         style="fill:none;stroke:#000000"
         d="m 15.959277,769.27941 2.078,0.54"
         id="path23516" />
      <path
         d="m 18.03709,769.8168 a 24,24 0 0 0 0.187847,0.0387"
         style="fill:none;stroke:#000000"
         id="path23518" />
      <path
         style="fill:none;stroke:#000000"
         d="m 18.225277,769.85941 2.251,0.34"
         id="path23520" />
      <path
         d="m 20.47639,770.19923 a 24,24 0 0 0 2.684588,0.12904"
         style="fill:none;stroke:#000000"
         id="path23522" />
      <path
         style="fill:none;stroke:#000000"
         d="m 23.161277,770.32941 v 0"
         id="path23524" />
      <path
         style="fill:none;stroke:#000000"
         d="M 23.161277,770.32941 H 790.77728"
         id="path23526" />
      <path
         d="m 790.77745,770.32842 a 24.000151,24.000151 0 0 0 2.68135,-0.12871"
         style="fill:none;stroke:#000000"
         id="path23528" />
      <path
         style="fill:none;stroke:#000000"
         d="m 793.45928,770.19941 2.256,-0.34"
         id="path23530" />
      <path
         d="m 795.71574,769.85514 a 24.000151,24.000151 0 0 0 0.18362,-0.0378"
         style="fill:none;stroke:#000000"
         id="path23532" />
      <path
         style="fill:none;stroke:#000000"
         d="m 795.89928,769.81941 2.083,-0.54"
         id="path23534" />
      <path
         d="m 797.98201,769.28176 a 24.000151,24.000151 0 0 0 0.24696,-0.0769"
         style="fill:none;stroke:#000000"
         id="path23536" />
      <path
         style="fill:none;stroke:#000000"
         d="m 798.22928,769.20941 1.964,-0.72"
         id="path23538" />
      <path
         d="m 800.19323,768.48585 a 24.000151,24.000151 0 0 0 0.22969,-0.097"
         style="fill:none;stroke:#000000"
         id="path23540" />
      <path
         style="fill:none;stroke:#000000"
         d="m 800.42328,768.38941 1.903,-0.92"
         id="path23542" />
      <path
         d="m 802.32613,767.47205 a 24.000151,24.000151 0 0 0 0.15928,-0.0863"
         style="fill:none;stroke:#000000"
         id="path23544" />
      <path
         style="fill:none;stroke:#000000"
         d="m 802.48528,767.38941 1.865,-1.14"
         id="path23546" />
      <path
         d="m 804.35036,766.25267 a 24.000151,24.000151 0 0 0 0.0711,-0.0479"
         style="fill:none;stroke:#000000"
         id="path23548" />
      <path
         style="fill:none;stroke:#000000"
         d="m 804.42128,766.20941 1.809,-1.36"
         id="path23550" />
      <path
         style="fill:none;stroke:#000000"
         d="m 806.23028,764.84941 h 0.009"
         id="path23552" />
      <path
         style="fill:none;stroke:#000000"
         d="m 806.23928,764.84941 1.7,-1.55"
         id="path23554" />
      <path
         style="fill:none;stroke:#000000"
         d="m 807.93928,763.29941 1.544,-1.7"
         id="path23556" />
      <path
         style="fill:none;stroke:#000000"
         d="m 809.48328,761.59941 0.011,-0.01"
         id="path23558" />
      <path
         style="fill:none;stroke:#000000"
         d="m 809.49428,761.58941 1.349,-1.81"
         id="path23560" />
      <path
         d="m 810.84292,759.78421 a 24.000151,24.000151 0 0 0 0.0519,-0.077"
         style="fill:none;stroke:#000000"
         id="path23562" />
      <path
         style="fill:none;stroke:#000000"
         d="m 810.89528,759.70941 1.13,-1.86"
         id="path23564" />
      <path
         d="m 812.02528,757.84633 a 24.000151,24.000151 0 0 0 0.0877,-0.16186"
         style="fill:none;stroke:#000000"
         id="path23566" />
      <path
         style="fill:none;stroke:#000000"
         d="m 812.11328,757.68941 0.914,-1.9"
         id="path23568" />
      <path
         d="m 813.02736,755.78653 a 24.000151,24.000151 0 0 0 0.10022,-0.23727"
         style="fill:none;stroke:#000000"
         id="path23570" />
      <path
         style="fill:none;stroke:#000000"
         d="m 813.12728,755.54941 0.717,-1.96"
         id="path23572" />
      <path
         d="m 813.84382,753.59252 a 24.000151,24.000151 0 0 0 0.0791,-0.25393"
         style="fill:none;stroke:#000000"
         id="path23574" />
      <path
         style="fill:none;stroke:#000000"
         d="m 813.92328,753.33941 0.534,-2.08"
         id="path23576" />
      <path
         d="m 814.4577,751.25821 a 24.000151,24.000151 0 0 0 0.0373,-0.18128"
         style="fill:none;stroke:#000000"
         id="path23578" />
      <path
         style="fill:none;stroke:#000000"
         d="m 814.49528,751.07941 0.345,-2.26"
         id="path23580" />
      <path
         d="m 814.84006,748.81668 a 24.000151,24.000151 0 0 0 0.12851,-2.6794"
         style="fill:none;stroke:#000000"
         id="path23582" />
      <path
         style="fill:none;stroke:#000000"
         d="m 814.96828,746.13941 h 10e-4"
         id="path23584" />
      <path
         style="fill:none;stroke:#000000"
         d="m 814.96928,746.13941 v -311.618"
         id="path23586" />
      <path
         style="fill:none;stroke:#000000"
         d="m 814.96928,434.52141 -10e-4,-10e-4"
         id="path23588" />
      <path
         d="m 814.96857,434.52079 a 24.000151,24.000151 0 0 0 -0.12851,-2.67937"
         style="fill:none;stroke:#000000"
         id="path23590" />
      <path
         style="fill:none;stroke:#000000"
         d="m 814.84028,431.84141 -0.345,-2.26"
         id="path23592" />
      <path
         d="m 814.49504,429.5813 a 24.000151,24.000151 0 0 0 -0.0374,-0.18161"
         style="fill:none;stroke:#000000"
         id="path23594" />
      <path
         style="fill:none;stroke:#000000"
         d="m 814.45728,429.39941 -0.534,-2.08"
         id="path23596" />
      <path
         d="m 813.92297,427.31972 a 24.000151,24.000151 0 0 0 -0.0792,-0.2544"
         style="fill:none;stroke:#000000"
         id="path23598" />
      <path
         style="fill:none;stroke:#000000"
         d="m 813.84328,427.06541 -0.716,-1.957"
         id="path23600" />
      <path
         d="m 813.12759,425.10887 a 24.000151,24.000151 0 0 0 -0.10024,-0.2373"
         style="fill:none;stroke:#000000"
         id="path23602" />
      <path
         style="fill:none;stroke:#000000"
         d="m 813.02728,424.87141 -0.914,-1.897"
         id="path23604" />
      <path
         d="m 812.11318,422.97395 a 24.000151,24.000151 0 0 0 -0.0881,-0.16253"
         style="fill:none;stroke:#000000"
         id="path23606" />
      <path
         style="fill:none;stroke:#000000"
         d="m 812.02528,422.81141 -1.13,-1.86"
         id="path23608" />
      <path
         d="m 810.89486,420.95094 a 24.000151,24.000151 0 0 0 -0.0519,-0.077"
         style="fill:none;stroke:#000000"
         id="path23610" />
      <path
         style="fill:none;stroke:#000000"
         d="m 810.84328,420.87341 -1.349,-1.803"
         id="path23612" />
      <path
         style="fill:none;stroke:#000000"
         d="m 809.49428,419.07041 -0.012,-0.014"
         id="path23614" />
      <path
         style="fill:none;stroke:#000000"
         d="m 809.48228,419.05641 -1.543,-1.698"
         id="path23616" />
      <path
         style="fill:none;stroke:#000000"
         d="m 807.93928,417.35841 -1.7,-1.545"
         id="path23618" />
      <path
         style="fill:none;stroke:#000000"
         d="m 806.23928,415.81341 -0.009,-0.007"
         id="path23620" />
      <path
         style="fill:none;stroke:#000000"
         d="m 806.23028,415.80641 -1.807,-1.352"
         id="path23622" />
      <path
         d="m 804.42299,414.45441 a 24.000151,24.000151 0 0 0 -0.0745,-0.0502"
         style="fill:none;stroke:#000000"
         id="path23624" />
      <path
         style="fill:none;stroke:#000000"
         d="m 804.34828,414.40441 -1.859,-1.13"
         id="path23626" />
      <path
         d="m 802.48968,413.27473 a 24.000151,24.000151 0 0 0 -0.16831,-0.0912"
         style="fill:none;stroke:#000000"
         id="path23628" />
      <path
         style="fill:none;stroke:#000000"
         d="m 802.32128,413.18341 -1.894,-0.912"
         id="path23630" />
      <path
         d="m 800.42724,412.27114 a 24.000151,24.000151 0 0 0 -0.23828,-0.10065"
         style="fill:none;stroke:#000000"
         id="path23632" />
      <path
         style="fill:none;stroke:#000000"
         d="m 800.18928,412.17041 -1.96,-0.717"
         id="path23634" />
      <path
         d="m 798.22923,411.45335 a 24.000151,24.000151 0 0 0 -0.24726,-0.077"
         style="fill:none;stroke:#000000"
         id="path23636" />
      <path
         style="fill:none;stroke:#000000"
         d="m 797.98228,411.37641 -2.082,-0.535"
         id="path23638" />
      <path
         d="m 795.90012,410.84093 a 24.000151,24.000151 0 0 0 -0.18512,-0.0381"
         style="fill:none;stroke:#000000"
         id="path23640" />
      <path
         style="fill:none;stroke:#000000"
         d="m 795.71528,410.80241 -2.256,-0.344"
         id="path23642" />
      <path
         style="fill:none;stroke:#000000"
         d="m 18.245277,525.60941 v 57.44"
         id="path23644" />
      <path
         style="fill:none;stroke:#000000"
         d="m 75.693277,525.60941 h -57.448"
         id="path23646" />
      <path
         style="fill:none;stroke:#000000"
         d="m 75.693277,583.04941 v -57.44"
         id="path23648" />
      <path
         style="fill:none;stroke:#000000"
         d="m 18.245277,583.04941 h 57.448"
         id="path23650" />
      <path
         style="fill:none;stroke:#000000"
         d="m 18.245277,609.60941 v 57.44"
         id="path23652" />
      <path
         style="fill:none;stroke:#000000"
         d="m 75.693277,609.60941 h -57.448"
         id="path23654" />
      <path
         style="fill:none;stroke:#000000"
         d="m 75.693277,667.04941 v -57.44"
         id="path23656" />
      <path
         style="fill:none;stroke:#000000"
         d="m 18.245277,667.04941 h 57.448"
         id="path23658" />
      <path
         style="fill:none;stroke:#000000"
         d="m 102.24428,571.04941 h 57.449"
         id="path23660" />
      <path
         style="fill:none;stroke:#000000"
         d="m 102.24428,513.60941 v 57.44"
         id="path23662" />
      <path
         style="fill:none;stroke:#000000"
         d="m 159.69328,513.60941 h -57.449"
         id="path23664" />
      <path
         style="fill:none;stroke:#000000"
         d="m 159.69328,571.04941 v -57.44"
         id="path23666" />
      <path
         style="fill:none;stroke:#000000"
         d="m 102.24428,597.60941 v 57.44"
         id="path23668" />
      <path
         style="fill:none;stroke:#000000"
         d="m 159.69328,597.60941 h -57.449"
         id="path23670" />
      <path
         style="fill:none;stroke:#000000"
         d="m 159.69328,655.04941 v -57.44"
         id="path23672" />
      <path
         style="fill:none;stroke:#000000"
         d="m 102.24428,655.04941 h 57.449"
         id="path23674" />
      <path
         style="fill:none;stroke:#000000"
         d="m 186.24528,513.60941 v 57.44"
         id="path23676" />
      <path
         style="fill:none;stroke:#000000"
         d="m 243.69328,513.60941 h -57.448"
         id="path23678" />
      <path
         style="fill:none;stroke:#000000"
         d="m 243.69328,571.04941 v -57.44"
         id="path23680" />
      <path
         style="fill:none;stroke:#000000"
         d="m 186.24528,571.04941 h 57.448"
         id="path23682" />
      <path
         style="fill:none;stroke:#000000"
         d="m 186.24528,597.60941 v 57.44"
         id="path23684" />
      <path
         style="fill:none;stroke:#000000"
         d="m 243.69328,597.60941 h -57.448"
         id="path23686" />
      <path
         style="fill:none;stroke:#000000"
         d="m 243.69328,655.04941 v -57.44"
         id="path23688" />
      <path
         style="fill:none;stroke:#000000"
         d="m 186.24528,655.04941 h 57.448"
         id="path23690" />
      <path
         style="fill:none;stroke:#000000"
         d="m 270.24528,525.50941 v 57.45"
         id="path23692" />
      <path
         style="fill:none;stroke:#000000"
         d="m 327.69368,525.50941 h -57.4484"
         id="path23694" />
      <path
         style="fill:none;stroke:#000000"
         d="m 327.69368,582.95941 v -57.45"
         id="path23696" />
      <path
         style="fill:none;stroke:#000000"
         d="m 270.24528,582.95941 h 57.4484"
         id="path23698" />
      <path
         style="fill:none;stroke:#000000"
         d="m 270.24528,621.60941 v 57.44"
         id="path23700" />
      <path
         style="fill:none;stroke:#000000"
         d="m 327.69368,621.60941 h -57.4484"
         id="path23702" />
      <path
         style="fill:none;stroke:#000000"
         d="m 327.69368,679.04941 v -57.44"
         id="path23704" />
      <path
         style="fill:none;stroke:#000000"
         d="m 270.24528,679.04941 h 57.4484"
         id="path23706" />
      <path
         style="fill:none;stroke:#000000"
         d="m 561.38928,627.61941 14.869,55.49"
         id="path23708" />
      <path
         style="fill:none;stroke:#000000"
         d="m 616.88028,612.74941 -55.491,14.87"
         id="path23710" />
      <path
         style="fill:none;stroke:#000000"
         d="m 631.74928,668.23941 -14.869,-55.49"
         id="path23712" />
      <path
         style="fill:none;stroke:#000000"
         d="m 576.25828,683.10941 55.491,-14.87"
         id="path23714" />
      <path
         style="fill:none;stroke:#000000"
         d="m 650.65828,661.50941 55.491,-14.87"
         id="path23716" />
      <path
         style="fill:none;stroke:#000000"
         d="m 635.78928,606.01941 14.869,55.49"
         id="path23718" />
      <path
         style="fill:none;stroke:#000000"
         d="m 691.28028,591.14941 -55.491,14.87"
         id="path23720" />
      <path
         style="fill:none;stroke:#000000"
         d="m 706.14928,646.63941 -14.869,-55.49"
         id="path23722" />
      <path
         style="fill:none;stroke:#000000"
         d="m 710.18928,586.81941 14.869,55.49"
         id="path23724" />
      <path
         style="fill:none;stroke:#000000"
         d="m 765.68028,571.94941 -55.491,14.87"
         id="path23726" />
      <path
         style="fill:none;stroke:#000000"
         d="m 780.54928,627.43941 -14.869,-55.49"
         id="path23728" />
      <path
         style="fill:none;stroke:#000000"
         d="m 725.05828,642.30941 55.491,-14.87"
         id="path23730" />
      <path
         style="fill:none;stroke:#000000"
         d="m 616.58928,534.01941 14.869,55.49"
         id="path23732" />
      <path
         style="fill:none;stroke:#000000"
         d="m 672.08028,519.14941 -55.491,14.87"
         id="path23734" />
      <path
         style="fill:none;stroke:#000000"
         d="m 686.94928,574.63941 -14.869,-55.49"
         id="path23736" />
      <path
         style="fill:none;stroke:#000000"
         d="m 631.45828,589.50941 55.491,-14.87"
         id="path23738" />
      <path
         d="m 74.559809,434.32907 a 7.559055,7.559055 0 1 0 -15.11811,0 7.559055,7.559055 0 1 0 15.11811,0 z"
         style="fill:none;stroke:#000000"
         id="path23740" />
      <path
         d="m 171.50473,434.32907 a 4.535435,4.535435 0 1 0 -9.07087,0 4.535435,4.535435 0 1 0 9.07087,0 z"
         style="fill:none;stroke:#000000"
         id="path23742" />
      <path
         d="m 225.55197,434.32907 a 7.559055,7.559055 0 1 0 -15.11811,0 7.559055,7.559055 0 1 0 15.11811,0 z"
         style="fill:none;stroke:#000000"
         id="path23744" />
      <path
         d="m 263.34725,434.32907 a 7.5590555,7.5590555 0 1 0 -15.11811,0 7.5590555,7.5590555 0 1 0 15.11811,0 z"
         style="fill:none;stroke:#000000"
         id="path23746" />
      <path
         d="m 301.14252,434.32907 a 7.559055,7.559055 0 1 0 -15.11811,0 7.559055,7.559055 0 1 0 15.11811,0 z"
         style="fill:none;stroke:#000000"
         id="path23748" />
      <path
         d="m 338.9378,434.32907 a 7.559055,7.559055 0 1 0 -15.11811,0 7.559055,7.559055 0 1 0 15.11811,0 z"
         style="fill:none;stroke:#000000"
         id="path23750" />
      <path
         d="m 376.73307,434.32907 a 7.559055,7.559055 0 1 0 -15.11811,0 7.559055,7.559055 0 1 0 15.11811,0 z"
         style="fill:none;stroke:#000000"
         id="path23752" />
      <path
         d="m 459.50477,434.32907 a 4.535435,4.535435 0 1 0 -9.07087,0 4.535435,4.535435 0 1 0 9.07087,0 z"
         style="fill:none;stroke:#000000"
         id="path23754" />
      <path
         d="m 754.49689,434.32907 a 7.559055,7.559055 0 1 0 -15.11811,0 7.559055,7.559055 0 1 0 15.11811,0 z"
         style="fill:none;stroke:#000000"
         id="path23756" />
      <path
         d="m 411.50473,746.32904 a 4.535435,4.535435 0 1 0 -9.07087,0 4.535435,4.535435 0 1 0 9.07087,0 z"
         style="fill:none;stroke:#000000"
         id="path23758" />
      <path
         d="m 795.50462,746.32904 a 4.535435,4.535435 0 1 0 -9.07087,0 4.535435,4.535435 0 1 0 9.07087,0 z"
         style="fill:none;stroke:#000000"
         id="path23760" />
      <path
         d="m 27.504578,746.32904 a 4.535433,4.535433 0 1 0 -9.070866,0 4.535433,4.535433 0 1 0 9.070866,0 z"
         style="fill:none;stroke:#000000"
         id="path23762" />
      <path
         d="m 27.504578,434.32907 a 4.535433,4.535433 0 1 0 -9.070866,0 4.535433,4.535433 0 1 0 9.070866,0 z"
         style="fill:none;stroke:#000000"
         id="path23764" />
    </g>
  </g>
  <g
     inkscape:groupmode="layer"
     inkscape:label="MODELSKETCH_VISIBLE"
     id="g23768" />
  <g
     inkscape:groupmode="layer"
     inkscape:label="MODELSKETCH_POINT"
     id="g23770" />
  <g
     inkscape:groupmode="layer"
     inkscape:label="MODELSKETCH_CONSTRUCTION"
     id="g23772" />
  <g
     inkscape:groupmode="layer"
     inkscape:label="HIDDEN_BASE_VIEW"
     id="g23774" />
  <g
     inkscape:groupmode="layer"
     inkscape:label="TANGENT_LINES"
     id="g23776" />
  <g
     inkscape:groupmode="layer"
     inkscape:label="TANGENT_HIDDEN"
     id="g23778" />
  <g
     inkscape:groupmode="layer"
     inkscape:label="INVISIBLE_LINES"
     id="g23780" />
  <g
     inkscape:groupmode="layer"
     inkscape:label="VIEW_HATCHES"
     id="g23782" />
  <g
     inkscape:groupmode="layer"
     inkscape:label="SECTION_JOG_LINES"
     id="g23784" />
</svg>
