  0
SECTION
  2
HEADER
  9
$ACADVER
  1
AC1009
  0
ENDSEC
  0
SECTION
  2
ENTITIES
  0
CIRCLE
  5
90
  8
Layer_0
  62
0
  10
344.09497
  20
474.23599
  30
0
  40
2
  0
CIRCLE
  5
90
  8
Layer_0
  62
0
  10
448.09497
  20
471.23599
  30
0
  40
2
  0
CIRCLE
  5
90
  8
Layer_0
  62
0
  10
552.09497
  20
474.23593
  30
0
  40
2
  0
CIRCLE
  5
90
  8
Layer_0
  62
0
  10
334.09497
  20
369.23602
  30
0
  40
1.25
  0
CIRCLE
  5
90
  8
Layer_0
  62
0
  10
448.09497
  20
369.23596
  30
0
  40
1.25
  0
CIRCLE
  5
90
  8
Layer_0
  62
0
  10
562.09497
  20
369.2359
  30
0
  40
1.25
  0
POLYLINE
  5
90
  8
Layer_0
  62
0
  70
1
  66
1
  10
0
  20
0
  30
0
  0
VERTEX
  5
90
  8
Layer_0
  10
578.09497
  20
490.43597
  0
VERTEX
  5
91
  8
Layer_0
  10
318.09497
  20
490.43604
  0
VERTEX
  5
92
  8
Layer_0
  10
317.69196
  20
490.39542
  0
VERTEX
  5
93
  8
Layer_0
  10
317.31653
  20
490.27887
  0
VERTEX
  5
94
  8
Layer_0
  10
316.97681
  20
490.09448
  0
VERTEX
  5
95
  8
Layer_0
  10
316.68079
  20
489.85022
  0
VERTEX
  5
96
  8
Layer_0
  10
316.43665
  20
489.55426
  0
VERTEX
  5
97
  8
Layer_0
  10
316.2522
  20
489.21451
  0
VERTEX
  5
98
  8
Layer_0
  10
316.13562
  20
488.83908
  0
VERTEX
  5
99
  8
Layer_0
  10
316.09497
  20
488.43604
  0
VERTEX
  5
9a
  8
Layer_0
  10
316.09497
  20
356.23602
  0
VERTEX
  5
9b
  8
Layer_0
  10
316.13562
  20
355.83295
  0
VERTEX
  5
9c
  8
Layer_0
  10
316.2522
  20
355.45752
  0
VERTEX
  5
9d
  8
Layer_0
  10
316.43665
  20
355.1178
  0
VERTEX
  5
9e
  8
Layer_0
  10
316.68079
  20
354.82178
  0
VERTEX
  5
9f
  8
Layer_0
  10
316.97675
  20
354.57764
  0
VERTEX
  5
a0
  8
Layer_0
  10
317.31647
  20
354.39319
  0
VERTEX
  5
a1
  8
Layer_0
  10
317.69196
  20
354.27667
  0
VERTEX
  5
a2
  8
Layer_0
  10
318.09497
  20
354.23602
  0
VERTEX
  5
a3
  8
Layer_0
  10
578.09497
  20
354.23596
  0
VERTEX
  5
a4
  8
Layer_0
  10
578.49799
  20
354.27661
  0
VERTEX
  5
a5
  8
Layer_0
  10
578.87341
  20
354.39319
  0
VERTEX
  5
a6
  8
Layer_0
  10
579.21313
  20
354.57764
  0
VERTEX
  5
a7
  8
Layer_0
  10
579.50916
  20
354.82178
  0
VERTEX
  5
a8
  8
Layer_0
  10
579.7533
  20
355.1178
  0
VERTEX
  5
a9
  8
Layer_0
  10
579.93774
  20
355.45752
  0
VERTEX
  5
aa
  8
Layer_0
  10
580.05432
  20
355.83295
  0
VERTEX
  5
ab
  8
Layer_0
  10
580.09497
  20
356.23596
  0
VERTEX
  5
ac
  8
Layer_0
  10
580.09497
  20
488.43597
  0
VERTEX
  5
ad
  8
Layer_0
  10
580.05432
  20
488.83902
  0
VERTEX
  5
ae
  8
Layer_0
  10
579.93774
  20
489.21445
  0
VERTEX
  5
af
  8
Layer_0
  10
579.7533
  20
489.5542
  0
VERTEX
  5
b0
  8
Layer_0
  10
579.50916
  20
489.85016
  0
VERTEX
  5
b1
  8
Layer_0
  10
579.2132
  20
490.09442
  0
VERTEX
  5
b2
  8
Layer_0
  10
578.87347
  20
490.27881
  0
VERTEX
  5
b3
  8
Layer_0
  10
578.49799
  20
490.39536
  0
VERTEX
  5
b4
  8
Layer_0
  10
578.09497
  20
490.43597
  0
SEQEND
  0
POLYLINE
  5
b6
  8
Layer_0
  62
0
  70
1
  66
1
  10
0
  20
0
  30
0
  0
VERTEX
  5
b6
  8
Layer_0
  10
363.09497
  20
454.23602
  0
VERTEX
  5
b7
  8
Layer_0
  10
363.09497
  20
470.23602
  0
VERTEX
  5
b8
  8
Layer_0
  10
379.09497
  20
470.23602
  0
VERTEX
  5
b9
  8
Layer_0
  10
379.09497
  20
454.23602
  0
VERTEX
  5
ba
  8
Layer_0
  10
363.09497
  20
454.23602
  0
SEQEND
  0
POLYLINE
  5
bc
  8
Layer_0
  62
0
  70
1
  66
1
  10
0
  20
0
  30
0
  0
VERTEX
  5
bc
  8
Layer_0
  10
392.09497
  20
454.23602
  0
VERTEX
  5
bd
  8
Layer_0
  10
392.09497
  20
470.23602
  0
VERTEX
  5
be
  8
Layer_0
  10
408.09497
  20
470.23599
  0
VERTEX
  5
bf
  8
Layer_0
  10
408.09497
  20
454.23599
  0
VERTEX
  5
c0
  8
Layer_0
  10
392.09497
  20
454.23602
  0
SEQEND
  0
POLYLINE
  5
c2
  8
Layer_0
  62
0
  70
1
  66
1
  10
0
  20
0
  30
0
  0
VERTEX
  5
c2
  8
Layer_0
  10
419.09497
  20
441.23599
  0
VERTEX
  5
c3
  8
Layer_0
  10
419.09497
  20
457.23599
  0
VERTEX
  5
c4
  8
Layer_0
  10
435.09497
  20
457.23599
  0
VERTEX
  5
c5
  8
Layer_0
  10
435.09497
  20
441.23599
  0
VERTEX
  5
c6
  8
Layer_0
  10
419.09497
  20
441.23599
  0
SEQEND
  0
POLYLINE
  5
c8
  8
Layer_0
  62
0
  70
1
  66
1
  10
0
  20
0
  30
0
  0
VERTEX
  5
c8
  8
Layer_0
  10
440.09497
  20
385.23602
  0
VERTEX
  5
c9
  8
Layer_0
  10
440.09497
  20
401.23599
  0
VERTEX
  5
ca
  8
Layer_0
  10
456.09497
  20
401.23599
  0
VERTEX
  5
cb
  8
Layer_0
  10
456.09497
  20
385.23602
  0
VERTEX
  5
cc
  8
Layer_0
  10
440.09497
  20
385.23602
  0
SEQEND
  0
POLYLINE
  5
ce
  8
Layer_0
  62
0
  70
1
  66
1
  10
0
  20
0
  30
0
  0
VERTEX
  5
ce
  8
Layer_0
  10
460.09497
  20
421.23599
  0
VERTEX
  5
cf
  8
Layer_0
  10
460.09497
  20
437.23599
  0
VERTEX
  5
d0
  8
Layer_0
  10
476.09497
  20
437.23599
  0
VERTEX
  5
d1
  8
Layer_0
  10
476.09497
  20
421.23599
  0
VERTEX
  5
d2
  8
Layer_0
  10
460.09497
  20
421.23599
  0
SEQEND
  0
POLYLINE
  5
d4
  8
Layer_0
  62
0
  70
1
  66
1
  10
0
  20
0
  30
0
  0
VERTEX
  5
d4
  8
Layer_0
  10
460.09497
  20
450.23599
  0
VERTEX
  5
d5
  8
Layer_0
  10
460.09497
  20
466.23599
  0
VERTEX
  5
d6
  8
Layer_0
  10
476.09497
  20
466.23599
  0
VERTEX
  5
d7
  8
Layer_0
  10
476.09497
  20
450.23599
  0
VERTEX
  5
d8
  8
Layer_0
  10
460.09497
  20
450.23599
  0
SEQEND
  0
POLYLINE
  5
da
  8
Layer_0
  62
0
  70
1
  66
1
  10
0
  20
0
  30
0
  0
VERTEX
  5
da
  8
Layer_0
  10
485.59497
  20
435.23599
  0
VERTEX
  5
db
  8
Layer_0
  10
485.59497
  20
451.23599
  0
VERTEX
  5
dc
  8
Layer_0
  10
501.59497
  20
451.23599
  0
VERTEX
  5
dd
  8
Layer_0
  10
501.59497
  20
435.23599
  0
VERTEX
  5
de
  8
Layer_0
  10
485.59497
  20
435.23599
  0
SEQEND
  0
POLYLINE
  5
e0
  8
Layer_0
  62
0
  70
1
  66
1
  10
0
  20
0
  30
0
  0
VERTEX
  5
e0
  8
Layer_0
  10
514.59497
  20
460.73599
  0
VERTEX
  5
e1
  8
Layer_0
  10
514.59497
  20
476.73599
  0
VERTEX
  5
e2
  8
Layer_0
  10
530.59497
  20
476.73599
  0
VERTEX
  5
e3
  8
Layer_0
  10
530.59497
  20
460.73599
  0
VERTEX
  5
e4
  8
Layer_0
  10
514.59497
  20
460.73599
  0
SEQEND
  0
POLYLINE
  5
e6
  8
Layer_0
  62
0
  70
1
  66
1
  10
0
  20
0
  30
0
  0
VERTEX
  5
e6
  8
Layer_0
  10
514.59497
  20
431.73599
  0
VERTEX
  5
e7
  8
Layer_0
  10
514.59497
  20
447.73599
  0
VERTEX
  5
e8
  8
Layer_0
  10
530.59497
  20
447.73599
  0
VERTEX
  5
e9
  8
Layer_0
  10
530.59497
  20
431.73599
  0
VERTEX
  5
ea
  8
Layer_0
  10
514.59497
  20
431.73599
  0
SEQEND
  0
POLYLINE
  5
ec
  8
Layer_0
  62
0
  70
1
  66
1
  10
0
  20
0
  30
0
  0
VERTEX
  5
ec
  8
Layer_0
  10
540.09497
  20
417.23599
  0
VERTEX
  5
ed
  8
Layer_0
  10
540.09497
  20
433.23599
  0
VERTEX
  5
ee
  8
Layer_0
  10
556.09497
  20
433.23599
  0
VERTEX
  5
ef
  8
Layer_0
  10
556.09497
  20
417.23599
  0
VERTEX
  5
f0
  8
Layer_0
  10
540.09497
  20
417.23599
  0
SEQEND
  0
POLYLINE
  5
f2
  8
Layer_0
  62
0
  70
1
  66
1
  10
0
  20
0
  30
0
  0
VERTEX
  5
f2
  8
Layer_0
  10
556.09497
  20
446.23599
  0
VERTEX
  5
f3
  8
Layer_0
  10
540.09497
  20
446.23599
  0
VERTEX
  5
f4
  8
Layer_0
  10
540.09497
  20
462.23599
  0
VERTEX
  5
f5
  8
Layer_0
  10
556.09497
  20
462.23596
  0
VERTEX
  5
f6
  8
Layer_0
  10
556.09497
  20
446.23599
  0
SEQEND
  0
POLYLINE
  5
f8
  8
Layer_0
  62
0
  70
1
  66
1
  10
0
  20
0
  30
0
  0
VERTEX
  5
f8
  8
Layer_0
  10
501.59497
  20
464.23599
  0
VERTEX
  5
f9
  8
Layer_0
  10
485.59497
  20
464.23599
  0
VERTEX
  5
fa
  8
Layer_0
  10
485.59497
  20
480.23599
  0
VERTEX
  5
fb
  8
Layer_0
  10
501.59497
  20
480.23599
  0
VERTEX
  5
fc
  8
Layer_0
  10
501.59497
  20
464.23599
  0
SEQEND
  0
POLYLINE
  5
fe
  8
Layer_0
  62
0
  66
1
  10
0
  20
0
  30
0
  0
VERTEX
  5
fe
  8
Layer_0
  10
335.34497
  20
484.23599
  0
VERTEX
  5
ff
  8
Layer_0
  10
335.31958
  20
483.98407
  0
VERTEX
  5
100
  8
Layer_0
  10
335.2467
  20
483.74945
  0
VERTEX
  5
101
  8
Layer_0
  10
335.13147
  20
483.53711
  0
VERTEX
  5
102
  8
Layer_0
  10
334.97888
  20
483.35211
  0
VERTEX
  5
103
  8
Layer_0
  10
334.79395
  20
483.19946
  0
VERTEX
  5
104
  8
Layer_0
  10
334.58154
  20
483.08423
  0
VERTEX
  5
105
  8
Layer_0
  10
334.34692
  20
483.01141
  0
VERTEX
  5
106
  8
Layer_0
  10
334.09497
  20
482.98599
  0
SEQEND
  0
POLYLINE
  5
108
  8
Layer_0
  62
0
  66
1
  10
0
  20
0
  30
0
  0
VERTEX
  5
108
  8
Layer_0
  10
334.09497
  20
482.98599
  0
VERTEX
  5
109
  8
Layer_0
  10
333.84302
  20
483.01141
  0
VERTEX
  5
10a
  8
Layer_0
  10
333.6084
  20
483.08423
  0
VERTEX
  5
10b
  8
Layer_0
  10
333.396
  20
483.19946
  0
VERTEX
  5
10c
  8
Layer_0
  10
333.21106
  20
483.35211
  0
VERTEX
  5
10d
  8
Layer_0
  10
333.05847
  20
483.53711
  0
VERTEX
  5
10e
  8
Layer_0
  10
332.94324
  20
483.74945
  0
VERTEX
  5
10f
  8
Layer_0
  10
332.87036
  20
483.98407
  0
VERTEX
  5
110
  8
Layer_0
  10
332.84497
  20
484.23599
  0
SEQEND
  0
POLYLINE
  5
112
  8
Layer_0
  62
0
  66
1
  10
0
  20
0
  30
0
  0
VERTEX
  5
112
  8
Layer_0
  10
332.84497
  20
484.23599
  0
VERTEX
  5
113
  8
Layer_0
  10
332.87036
  20
484.48792
  0
VERTEX
  5
114
  8
Layer_0
  10
332.94324
  20
484.72253
  0
VERTEX
  5
115
  8
Layer_0
  10
333.05847
  20
484.93488
  0
VERTEX
  5
116
  8
Layer_0
  10
333.21106
  20
485.11987
  0
VERTEX
  5
117
  8
Layer_0
  10
333.396
  20
485.27252
  0
VERTEX
  5
118
  8
Layer_0
  10
333.6084
  20
485.38776
  0
VERTEX
  5
119
  8
Layer_0
  10
333.84302
  20
485.46057
  0
VERTEX
  5
11a
  8
Layer_0
  10
334.09497
  20
485.48599
  0
SEQEND
  0
POLYLINE
  5
11c
  8
Layer_0
  62
0
  66
1
  10
0
  20
0
  30
0
  0
VERTEX
  5
11c
  8
Layer_0
  10
334.09497
  20
485.48599
  0
VERTEX
  5
11d
  8
Layer_0
  10
334.34692
  20
485.46057
  0
VERTEX
  5
11e
  8
Layer_0
  10
334.58154
  20
485.38776
  0
VERTEX
  5
11f
  8
Layer_0
  10
334.79395
  20
485.27252
  0
VERTEX
  5
120
  8
Layer_0
  10
334.97888
  20
485.11987
  0
VERTEX
  5
121
  8
Layer_0
  10
335.13147
  20
484.93488
  0
VERTEX
  5
122
  8
Layer_0
  10
335.2467
  20
484.72253
  0
VERTEX
  5
123
  8
Layer_0
  10
335.31958
  20
484.48792
  0
VERTEX
  5
124
  8
Layer_0
  10
335.34497
  20
484.23599
  0
SEQEND
  0
POLYLINE
  5
126
  8
Layer_0
  62
0
  66
1
  10
0
  20
0
  30
0
  0
VERTEX
  5
126
  8
Layer_0
  10
402.09503
  20
484.23599
  0
VERTEX
  5
127
  8
Layer_0
  10
402.05438
  20
483.83292
  0
VERTEX
  5
128
  8
Layer_0
  10
401.93787
  20
483.45752
  0
VERTEX
  5
129
  8
Layer_0
  10
401.75342
  20
483.11777
  0
VERTEX
  5
12a
  8
Layer_0
  10
401.50928
  20
482.82178
  0
VERTEX
  5
12b
  8
Layer_0
  10
401.21326
  20
482.57751
  0
VERTEX
  5
12c
  8
Layer_0
  10
400.87354
  20
482.39313
  0
VERTEX
  5
12d
  8
Layer_0
  10
400.49811
  20
482.27661
  0
VERTEX
  5
12e
  8
Layer_0
  10
400.09503
  20
482.23599
  0
SEQEND
  0
POLYLINE
  5
130
  8
Layer_0
  62
0
  66
1
  10
0
  20
0
  30
0
  0
VERTEX
  5
130
  8
Layer_0
  10
400.09503
  20
482.23599
  0
VERTEX
  5
131
  8
Layer_0
  10
399.69196
  20
482.27661
  0
VERTEX
  5
132
  8
Layer_0
  10
399.31653
  20
482.39313
  0
VERTEX
  5
133
  8
Layer_0
  10
398.97681
  20
482.57751
  0
VERTEX
  5
134
  8
Layer_0
  10
398.68079
  20
482.82178
  0
VERTEX
  5
135
  8
Layer_0
  10
398.43665
  20
483.11777
  0
VERTEX
  5
136
  8
Layer_0
  10
398.2522
  20
483.45752
  0
VERTEX
  5
137
  8
Layer_0
  10
398.13568
  20
483.83292
  0
VERTEX
  5
138
  8
Layer_0
  10
398.09503
  20
484.23599
  0
SEQEND
  0
POLYLINE
  5
13a
  8
Layer_0
  62
0
  66
1
  10
0
  20
0
  30
0
  0
VERTEX
  5
13a
  8
Layer_0
  10
398.09503
  20
484.23599
  0
VERTEX
  5
13b
  8
Layer_0
  10
398.13568
  20
484.63907
  0
VERTEX
  5
13c
  8
Layer_0
  10
398.2522
  20
485.01447
  0
VERTEX
  5
13d
  8
Layer_0
  10
398.43665
  20
485.35422
  0
VERTEX
  5
13e
  8
Layer_0
  10
398.68079
  20
485.65021
  0
VERTEX
  5
13f
  8
Layer_0
  10
398.97681
  20
485.89447
  0
VERTEX
  5
140
  8
Layer_0
  10
399.31653
  20
486.07886
  0
VERTEX
  5
141
  8
Layer_0
  10
399.69196
  20
486.19537
  0
VERTEX
  5
142
  8
Layer_0
  10
400.09503
  20
486.23599
  0
SEQEND
  0
POLYLINE
  5
144
  8
Layer_0
  62
0
  66
1
  10
0
  20
0
  30
0
  0
VERTEX
  5
144
  8
Layer_0
  10
400.09503
  20
486.23599
  0
VERTEX
  5
145
  8
Layer_0
  10
400.49811
  20
486.19537
  0
VERTEX
  5
146
  8
Layer_0
  10
400.87354
  20
486.07886
  0
VERTEX
  5
147
  8
Layer_0
  10
401.21326
  20
485.89447
  0
VERTEX
  5
148
  8
Layer_0
  10
401.50928
  20
485.65021
  0
VERTEX
  5
149
  8
Layer_0
  10
401.75342
  20
485.35422
  0
VERTEX
  5
14a
  8
Layer_0
  10
401.93787
  20
485.01447
  0
VERTEX
  5
14b
  8
Layer_0
  10
402.05438
  20
484.63907
  0
VERTEX
  5
14c
  8
Layer_0
  10
402.09503
  20
484.23599
  0
SEQEND
  0
POLYLINE
  5
14e
  8
Layer_0
  62
0
  66
1
  10
0
  20
0
  30
0
  0
VERTEX
  5
14e
  8
Layer_0
  10
414.09503
  20
484.23599
  0
VERTEX
  5
14f
  8
Layer_0
  10
414.05438
  20
483.83292
  0
VERTEX
  5
150
  8
Layer_0
  10
413.93787
  20
483.45752
  0
VERTEX
  5
151
  8
Layer_0
  10
413.75342
  20
483.11777
  0
VERTEX
  5
152
  8
Layer_0
  10
413.50928
  20
482.82178
  0
VERTEX
  5
153
  8
Layer_0
  10
413.21326
  20
482.57751
  0
VERTEX
  5
154
  8
Layer_0
  10
412.87354
  20
482.39313
  0
VERTEX
  5
155
  8
Layer_0
  10
412.49811
  20
482.27661
  0
VERTEX
  5
156
  8
Layer_0
  10
412.09503
  20
482.23599
  0
SEQEND
  0
POLYLINE
  5
158
  8
Layer_0
  62
0
  66
1
  10
0
  20
0
  30
0
  0
VERTEX
  5
158
  8
Layer_0
  10
412.09503
  20
482.23599
  0
VERTEX
  5
159
  8
Layer_0
  10
411.69196
  20
482.27661
  0
VERTEX
  5
15a
  8
Layer_0
  10
411.31653
  20
482.39313
  0
VERTEX
  5
15b
  8
Layer_0
  10
410.97681
  20
482.57751
  0
VERTEX
  5
15c
  8
Layer_0
  10
410.68079
  20
482.82178
  0
VERTEX
  5
15d
  8
Layer_0
  10
410.43665
  20
483.11777
  0
VERTEX
  5
15e
  8
Layer_0
  10
410.2522
  20
483.45752
  0
VERTEX
  5
15f
  8
Layer_0
  10
410.13568
  20
483.83292
  0
VERTEX
  5
160
  8
Layer_0
  10
410.09503
  20
484.23599
  0
SEQEND
  0
POLYLINE
  5
162
  8
Layer_0
  62
0
  66
1
  10
0
  20
0
  30
0
  0
VERTEX
  5
162
  8
Layer_0
  10
410.09503
  20
484.23599
  0
VERTEX
  5
163
  8
Layer_0
  10
410.13568
  20
484.63907
  0
VERTEX
  5
164
  8
Layer_0
  10
410.2522
  20
485.01447
  0
VERTEX
  5
165
  8
Layer_0
  10
410.43665
  20
485.35422
  0
VERTEX
  5
166
  8
Layer_0
  10
410.68079
  20
485.65021
  0
VERTEX
  5
167
  8
Layer_0
  10
410.97681
  20
485.89447
  0
VERTEX
  5
168
  8
Layer_0
  10
411.31653
  20
486.07886
  0
VERTEX
  5
169
  8
Layer_0
  10
411.69196
  20
486.19537
  0
VERTEX
  5
16a
  8
Layer_0
  10
412.09503
  20
486.23599
  0
SEQEND
  0
POLYLINE
  5
16c
  8
Layer_0
  62
0
  66
1
  10
0
  20
0
  30
0
  0
VERTEX
  5
16c
  8
Layer_0
  10
412.09503
  20
486.23599
  0
VERTEX
  5
16d
  8
Layer_0
  10
412.49811
  20
486.19537
  0
VERTEX
  5
16e
  8
Layer_0
  10
412.87354
  20
486.07886
  0
VERTEX
  5
16f
  8
Layer_0
  10
413.21326
  20
485.89447
  0
VERTEX
  5
170
  8
Layer_0
  10
413.50928
  20
485.65021
  0
VERTEX
  5
171
  8
Layer_0
  10
413.75342
  20
485.35422
  0
VERTEX
  5
172
  8
Layer_0
  10
413.93787
  20
485.01447
  0
VERTEX
  5
173
  8
Layer_0
  10
414.05438
  20
484.63907
  0
VERTEX
  5
174
  8
Layer_0
  10
414.09503
  20
484.23599
  0
SEQEND
  0
POLYLINE
  5
176
  8
Layer_0
  62
0
  66
1
  10
0
  20
0
  30
0
  0
VERTEX
  5
176
  8
Layer_0
  10
427.09497
  20
484.23599
  0
VERTEX
  5
177
  8
Layer_0
  10
427.05432
  20
483.83292
  0
VERTEX
  5
178
  8
Layer_0
  10
426.93774
  20
483.45752
  0
VERTEX
  5
179
  8
Layer_0
  10
426.7533
  20
483.11777
  0
VERTEX
  5
17a
  8
Layer_0
  10
426.50916
  20
482.82178
  0
VERTEX
  5
17b
  8
Layer_0
  10
426.21313
  20
482.57751
  0
VERTEX
  5
17c
  8
Layer_0
  10
425.87341
  20
482.39313
  0
VERTEX
  5
17d
  8
Layer_0
  10
425.49799
  20
482.27661
  0
VERTEX
  5
17e
  8
Layer_0
  10
425.09497
  20
482.23599
  0
SEQEND
  0
POLYLINE
  5
180
  8
Layer_0
  62
0
  66
1
  10
0
  20
0
  30
0
  0
VERTEX
  5
180
  8
Layer_0
  10
425.09497
  20
482.23599
  0
VERTEX
  5
181
  8
Layer_0
  10
424.69196
  20
482.27661
  0
VERTEX
  5
182
  8
Layer_0
  10
424.31653
  20
482.39313
  0
VERTEX
  5
183
  8
Layer_0
  10
423.97681
  20
482.57751
  0
VERTEX
  5
184
  8
Layer_0
  10
423.68079
  20
482.82178
  0
VERTEX
  5
185
  8
Layer_0
  10
423.43665
  20
483.11777
  0
VERTEX
  5
186
  8
Layer_0
  10
423.2522
  20
483.45752
  0
VERTEX
  5
187
  8
Layer_0
  10
423.13562
  20
483.83292
  0
VERTEX
  5
188
  8
Layer_0
  10
423.09497
  20
484.23599
  0
SEQEND
  0
POLYLINE
  5
18a
  8
Layer_0
  62
0
  66
1
  10
0
  20
0
  30
0
  0
VERTEX
  5
18a
  8
Layer_0
  10
423.09497
  20
484.23599
  0
VERTEX
  5
18b
  8
Layer_0
  10
423.13562
  20
484.63907
  0
VERTEX
  5
18c
  8
Layer_0
  10
423.2522
  20
485.01447
  0
VERTEX
  5
18d
  8
Layer_0
  10
423.43665
  20
485.35422
  0
VERTEX
  5
18e
  8
Layer_0
  10
423.68079
  20
485.65021
  0
VERTEX
  5
18f
  8
Layer_0
  10
423.97681
  20
485.89447
  0
VERTEX
  5
190
  8
Layer_0
  10
424.31653
  20
486.07886
  0
VERTEX
  5
191
  8
Layer_0
  10
424.69196
  20
486.19537
  0
VERTEX
  5
192
  8
Layer_0
  10
425.09497
  20
486.23599
  0
SEQEND
  0
POLYLINE
  5
194
  8
Layer_0
  62
0
  66
1
  10
0
  20
0
  30
0
  0
VERTEX
  5
194
  8
Layer_0
  10
425.09497
  20
486.23599
  0
VERTEX
  5
195
  8
Layer_0
  10
425.49799
  20
486.19537
  0
VERTEX
  5
196
  8
Layer_0
  10
425.87341
  20
486.07886
  0
VERTEX
  5
197
  8
Layer_0
  10
426.21313
  20
485.89447
  0
VERTEX
  5
198
  8
Layer_0
  10
426.50916
  20
485.65021
  0
VERTEX
  5
199
  8
Layer_0
  10
426.7533
  20
485.35422
  0
VERTEX
  5
19a
  8
Layer_0
  10
426.93774
  20
485.01447
  0
VERTEX
  5
19b
  8
Layer_0
  10
427.05432
  20
484.63907
  0
VERTEX
  5
19c
  8
Layer_0
  10
427.09497
  20
484.23599
  0
SEQEND
  0
POLYLINE
  5
19e
  8
Layer_0
  62
0
  66
1
  10
0
  20
0
  30
0
  0
VERTEX
  5
19e
  8
Layer_0
  10
439.09497
  20
484.23599
  0
VERTEX
  5
19f
  8
Layer_0
  10
439.05432
  20
483.83292
  0
VERTEX
  5
1a0
  8
Layer_0
  10
438.93774
  20
483.45752
  0
VERTEX
  5
1a1
  8
Layer_0
  10
438.7533
  20
483.11777
  0
VERTEX
  5
1a2
  8
Layer_0
  10
438.50916
  20
482.82178
  0
VERTEX
  5
1a3
  8
Layer_0
  10
438.21313
  20
482.57751
  0
VERTEX
  5
1a4
  8
Layer_0
  10
437.87341
  20
482.39313
  0
VERTEX
  5
1a5
  8
Layer_0
  10
437.49799
  20
482.27661
  0
VERTEX
  5
1a6
  8
Layer_0
  10
437.09497
  20
482.23599
  0
SEQEND
  0
POLYLINE
  5
1a8
  8
Layer_0
  62
0
  66
1
  10
0
  20
0
  30
0
  0
VERTEX
  5
1a8
  8
Layer_0
  10
437.09497
  20
482.23599
  0
VERTEX
  5
1a9
  8
Layer_0
  10
436.69196
  20
482.27661
  0
VERTEX
  5
1aa
  8
Layer_0
  10
436.31653
  20
482.39313
  0
VERTEX
  5
1ab
  8
Layer_0
  10
435.97681
  20
482.57751
  0
VERTEX
  5
1ac
  8
Layer_0
  10
435.68079
  20
482.82178
  0
VERTEX
  5
1ad
  8
Layer_0
  10
435.43665
  20
483.11777
  0
VERTEX
  5
1ae
  8
Layer_0
  10
435.2522
  20
483.45752
  0
VERTEX
  5
1af
  8
Layer_0
  10
435.13562
  20
483.83292
  0
VERTEX
  5
1b0
  8
Layer_0
  10
435.09497
  20
484.23599
  0
SEQEND
  0
POLYLINE
  5
1b2
  8
Layer_0
  62
0
  66
1
  10
0
  20
0
  30
0
  0
VERTEX
  5
1b2
  8
Layer_0
  10
435.09497
  20
484.23599
  0
VERTEX
  5
1b3
  8
Layer_0
  10
435.13562
  20
484.63907
  0
VERTEX
  5
1b4
  8
Layer_0
  10
435.2522
  20
485.01447
  0
VERTEX
  5
1b5
  8
Layer_0
  10
435.43665
  20
485.35422
  0
VERTEX
  5
1b6
  8
Layer_0
  10
435.68079
  20
485.65021
  0
VERTEX
  5
1b7
  8
Layer_0
  10
435.97681
  20
485.89447
  0
VERTEX
  5
1b8
  8
Layer_0
  10
436.31653
  20
486.07886
  0
VERTEX
  5
1b9
  8
Layer_0
  10
436.69196
  20
486.19537
  0
VERTEX
  5
1ba
  8
Layer_0
  10
437.09497
  20
486.23599
  0
SEQEND
  0
POLYLINE
  5
1bc
  8
Layer_0
  62
0
  66
1
  10
0
  20
0
  30
0
  0
VERTEX
  5
1bc
  8
Layer_0
  10
437.09497
  20
486.23599
  0
VERTEX
  5
1bd
  8
Layer_0
  10
437.49799
  20
486.19537
  0
VERTEX
  5
1be
  8
Layer_0
  10
437.87341
  20
486.07886
  0
VERTEX
  5
1bf
  8
Layer_0
  10
438.21313
  20
485.89447
  0
VERTEX
  5
1c0
  8
Layer_0
  10
438.50916
  20
485.65021
  0
VERTEX
  5
1c1
  8
Layer_0
  10
438.7533
  20
485.35422
  0
VERTEX
  5
1c2
  8
Layer_0
  10
438.93774
  20
485.01447
  0
VERTEX
  5
1c3
  8
Layer_0
  10
439.05432
  20
484.63907
  0
VERTEX
  5
1c4
  8
Layer_0
  10
439.09497
  20
484.23599
  0
SEQEND
  0
POLYLINE
  5
1c6
  8
Layer_0
  62
0
  66
1
  10
0
  20
0
  30
0
  0
VERTEX
  5
1c6
  8
Layer_0
  10
461.34497
  20
484.23599
  0
VERTEX
  5
1c7
  8
Layer_0
  10
461.31958
  20
483.98407
  0
VERTEX
  5
1c8
  8
Layer_0
  10
461.2467
  20
483.74945
  0
VERTEX
  5
1c9
  8
Layer_0
  10
461.13147
  20
483.53711
  0
VERTEX
  5
1ca
  8
Layer_0
  10
460.97888
  20
483.35211
  0
VERTEX
  5
1cb
  8
Layer_0
  10
460.79395
  20
483.19946
  0
VERTEX
  5
1cc
  8
Layer_0
  10
460.58154
  20
483.08423
  0
VERTEX
  5
1cd
  8
Layer_0
  10
460.34692
  20
483.01141
  0
VERTEX
  5
1ce
  8
Layer_0
  10
460.09497
  20
482.98599
  0
SEQEND
  0
POLYLINE
  5
1d0
  8
Layer_0
  62
0
  66
1
  10
0
  20
0
  30
0
  0
VERTEX
  5
1d0
  8
Layer_0
  10
460.09497
  20
482.98599
  0
VERTEX
  5
1d1
  8
Layer_0
  10
459.84302
  20
483.01141
  0
VERTEX
  5
1d2
  8
Layer_0
  10
459.6084
  20
483.08423
  0
VERTEX
  5
1d3
  8
Layer_0
  10
459.396
  20
483.19946
  0
VERTEX
  5
1d4
  8
Layer_0
  10
459.21106
  20
483.35211
  0
VERTEX
  5
1d5
  8
Layer_0
  10
459.05847
  20
483.53711
  0
VERTEX
  5
1d6
  8
Layer_0
  10
458.94324
  20
483.74945
  0
VERTEX
  5
1d7
  8
Layer_0
  10
458.87036
  20
483.98407
  0
VERTEX
  5
1d8
  8
Layer_0
  10
458.84497
  20
484.23599
  0
SEQEND
  0
POLYLINE
  5
1da
  8
Layer_0
  62
0
  66
1
  10
0
  20
0
  30
0
  0
VERTEX
  5
1da
  8
Layer_0
  10
458.84497
  20
484.23599
  0
VERTEX
  5
1db
  8
Layer_0
  10
458.87036
  20
484.48792
  0
VERTEX
  5
1dc
  8
Layer_0
  10
458.94324
  20
484.72253
  0
VERTEX
  5
1dd
  8
Layer_0
  10
459.05847
  20
484.93488
  0
VERTEX
  5
1de
  8
Layer_0
  10
459.21106
  20
485.11987
  0
VERTEX
  5
1df
  8
Layer_0
  10
459.396
  20
485.27252
  0
VERTEX
  5
1e0
  8
Layer_0
  10
459.6084
  20
485.38776
  0
VERTEX
  5
1e1
  8
Layer_0
  10
459.84302
  20
485.46057
  0
VERTEX
  5
1e2
  8
Layer_0
  10
460.09497
  20
485.48599
  0
SEQEND
  0
POLYLINE
  5
1e4
  8
Layer_0
  62
0
  66
1
  10
0
  20
0
  30
0
  0
VERTEX
  5
1e4
  8
Layer_0
  10
460.09497
  20
485.48599
  0
VERTEX
  5
1e5
  8
Layer_0
  10
460.34692
  20
485.46057
  0
VERTEX
  5
1e6
  8
Layer_0
  10
460.58154
  20
485.38776
  0
VERTEX
  5
1e7
  8
Layer_0
  10
460.79395
  20
485.27252
  0
VERTEX
  5
1e8
  8
Layer_0
  10
460.97888
  20
485.11987
  0
VERTEX
  5
1e9
  8
Layer_0
  10
461.13147
  20
484.93488
  0
VERTEX
  5
1ea
  8
Layer_0
  10
461.2467
  20
484.72253
  0
VERTEX
  5
1eb
  8
Layer_0
  10
461.31958
  20
484.48792
  0
VERTEX
  5
1ec
  8
Layer_0
  10
461.34497
  20
484.23599
  0
SEQEND
  0
POLYLINE
  5
1ee
  8
Layer_0
  62
0
  66
1
  10
0
  20
0
  30
0
  0
VERTEX
  5
1ee
  8
Layer_0
  10
563.34497
  20
484.23593
  0
VERTEX
  5
1ef
  8
Layer_0
  10
563.31958
  20
483.98401
  0
VERTEX
  5
1f0
  8
Layer_0
  10
563.2467
  20
483.74939
  0
VERTEX
  5
1f1
  8
Layer_0
  10
563.13147
  20
483.53705
  0
VERTEX
  5
1f2
  8
Layer_0
  10
562.97888
  20
483.35205
  0
VERTEX
  5
1f3
  8
Layer_0
  10
562.79395
  20
483.1994
  0
VERTEX
  5
1f4
  8
Layer_0
  10
562.58154
  20
483.08417
  0
VERTEX
  5
1f5
  8
Layer_0
  10
562.34692
  20
483.01135
  0
VERTEX
  5
1f6
  8
Layer_0
  10
562.09497
  20
482.98593
  0
SEQEND
  0
POLYLINE
  5
1f8
  8
Layer_0
  62
0
  66
1
  10
0
  20
0
  30
0
  0
VERTEX
  5
1f8
  8
Layer_0
  10
562.09497
  20
482.98593
  0
VERTEX
  5
1f9
  8
Layer_0
  10
561.84302
  20
483.01135
  0
VERTEX
  5
1fa
  8
Layer_0
  10
561.6084
  20
483.08417
  0
VERTEX
  5
1fb
  8
Layer_0
  10
561.396
  20
483.1994
  0
VERTEX
  5
1fc
  8
Layer_0
  10
561.21106
  20
483.35205
  0
VERTEX
  5
1fd
  8
Layer_0
  10
561.05847
  20
483.53705
  0
VERTEX
  5
1fe
  8
Layer_0
  10
560.94324
  20
483.74939
  0
VERTEX
  5
1ff
  8
Layer_0
  10
560.87036
  20
483.98401
  0
VERTEX
  5
200
  8
Layer_0
  10
560.84497
  20
484.23593
  0
SEQEND
  0
POLYLINE
  5
202
  8
Layer_0
  62
0
  66
1
  10
0
  20
0
  30
0
  0
VERTEX
  5
202
  8
Layer_0
  10
560.84497
  20
484.23593
  0
VERTEX
  5
203
  8
Layer_0
  10
560.87036
  20
484.48785
  0
VERTEX
  5
204
  8
Layer_0
  10
560.94324
  20
484.72247
  0
VERTEX
  5
205
  8
Layer_0
  10
561.05847
  20
484.93481
  0
VERTEX
  5
206
  8
Layer_0
  10
561.21106
  20
485.11981
  0
VERTEX
  5
207
  8
Layer_0
  10
561.396
  20
485.27246
  0
VERTEX
  5
208
  8
Layer_0
  10
561.6084
  20
485.3877
  0
VERTEX
  5
209
  8
Layer_0
  10
561.84302
  20
485.46051
  0
VERTEX
  5
20a
  8
Layer_0
  10
562.09497
  20
485.48593
  0
SEQEND
  0
POLYLINE
  5
20c
  8
Layer_0
  62
0
  66
1
  10
0
  20
0
  30
0
  0
VERTEX
  5
20c
  8
Layer_0
  10
562.09497
  20
485.48593
  0
VERTEX
  5
20d
  8
Layer_0
  10
562.34692
  20
485.46051
  0
VERTEX
  5
20e
  8
Layer_0
  10
562.58154
  20
485.3877
  0
VERTEX
  5
20f
  8
Layer_0
  10
562.79395
  20
485.27246
  0
VERTEX
  5
210
  8
Layer_0
  10
562.97888
  20
485.11981
  0
VERTEX
  5
211
  8
Layer_0
  10
563.13147
  20
484.93481
  0
VERTEX
  5
212
  8
Layer_0
  10
563.2467
  20
484.72247
  0
VERTEX
  5
213
  8
Layer_0
  10
563.31958
  20
484.48785
  0
VERTEX
  5
214
  8
Layer_0
  10
563.34497
  20
484.23593
  0
SEQEND
  0
ENDSEC
  0
EOF
