0
SECTION
2
HEADER
9
$INSUNITS
70
4
9
$ACADVER
1
AC1014
9
$HANDSEED
5
FFFF
0
ENDSEC
0
SECTION
2
TABLES
0
TABLE
2
VPORT
5
8
100
AcDbSymbolTable
0
ENDTAB
0
TABLE
2
LTYPE
5
5
100
AcDbSymbolTable
0
LTYPE
5
14
100
AcDbSymbolTableRecord
100
AcDbLinetypeTableRecord
2
BYBLOCK
70
0
0
LTYPE
5
15
100
AcDbSymbolTableRecord
100
AcDbLinetypeTableRecord
2
BYLAYER
70
0
0
ENDTAB
0
TABLE
2
LAYER
5
2
100
AcDbSymbolTable
70
2
0
LAYER
5
50
100
AcDbSymbolTableRecord
100
AcDbLayerTableRecord
2
0
70
0
6
CONTINUOUS
0
ENDTAB
0
TABLE
2
STYLE
5
3
100
AcDbSymbolTable
70
1
0
STYLE
5
11
100
AcDbSymbolTableRecord
100
AcDbTextStyleTableRecord
2
STANDARD
70
0
0
ENDTAB
0
TABLE
2
VIEW
5
6
100
AcDbSymbolTable
70
0
0
ENDTAB
0
TABLE
2
UCS
5
7
100
AcDbSymbolTable
70
0
0
ENDTAB
0
TABLE
2
APPID
5
9
100
AcDbSymbolTable
70
2
0
APPID
5
12
100
AcDbSymbolTableRecord
100
AcDbRegAppTableRecord
2
ACAD
70
0
0
ENDTAB
0
TABLE
2
DIMSTYLE
5
A
100
AcDbSymbolTable
70
1
0
ENDTAB
0
TABLE
2
BLOCK_RECORD
5
1
100
AcDbSymbolTable
70
1
0
BLOCK_RECORD
5
1F
100
AcDbSymbolTableRecord
100
AcDbBlockTableRecord
2
*MODEL_SPACE
0
BLOCK_RECORD
5
1B
100
AcDbSymbolTableRecord
100
AcDbBlockTableRecord
2
*PAPER_SPACE
0
ENDTAB
0
ENDSEC
0
SECTION
2
BLOCKS
0
BLOCK
5
20
100
AcDbEntity
100
AcDbBlockBegin
2
*MODEL_SPACE
0
ENDBLK
5
21
100
AcDbEntity
100
AcDbBlockEnd
0
BLOCK
5
1C
100
AcDbEntity
100
AcDbBlockBegin
2
*PAPER_SPACE
0
ENDBLK
5
1D
100
AcDbEntity
100
AcDbBlockEnd
0
ENDSEC
0
SECTION
2
ENTITIES
0
LINE
5
100
100
AcDbEntity
8
0
100
AcDbLine
10
-95.191800262632256
20
5.3529188407205908
30
0
11
-99.332967768498079
21
-10.101830702561339
31
0
0
LINE
5
101
100
AcDbEntity
8
0
100
AcDbLine
10
-79.737051695078392
20
1.2117744534566643
30
0
11
-95.19180026263227
21
5.3529188407205908
31
0
0
LINE
5
102
100
AcDbEntity
8
0
100
AcDbLine
10
-83.878196343791558
20
-14.242975089825634
30
0
11
-79.737051695078378
21
1.2117744534566643
31
0
0
LINE
5
103
100
AcDbEntity
8
0
100
AcDbLine
10
-99.332967768498079
20
-10.101830702561339
30
0
11
-83.878196343791558
21
-14.242975089825634
31
0
0
LINE
5
104
100
AcDbEntity
8
0
100
AcDbLine
10
-75.506910524112897
20
0.27291967635599157
30
0
11
-79.647939675547235
21
-15.181939631158077
31
0
0
LINE
5
105
100
AcDbEntity
8
0
100
AcDbLine
10
-79.647939675547235
20
-15.181939631158077
30
0
11
-64.193194653751135
21
-19.322968782595705
31
0
0
LINE
5
106
100
AcDbEntity
8
0
100
AcDbLine
10
-64.193194653751135
20
-19.322968782595705
30
0
11
-60.052051216586513
21
-3.868223760811933
31
0
0
LINE
5
107
100
AcDbEntity
8
0
100
AcDbLine
10
-60.052051216586513
20
-3.868223760811933
30
0
11
-75.506910524112897
21
0.27291967635599157
31
0
0
LINE
5
108
100
AcDbEntity
8
0
100
AcDbLine
10
-74.567946339920496
20
3.8681692974384863
30
0
11
-59.113196439490359
21
-0.27297544697349352
31
0
0
LINE
5
109
100
AcDbEntity
8
0
100
AcDbLine
10
-70.426801595508536
20
19.322919197868647
30
0
11
-74.567946339920496
21
3.8681692974384863
31
0
0
LINE
5
110
100
AcDbEntity
8
0
100
AcDbLine
10
-54.972051695078378
20
15.181774453456658
30
0
11
-70.426801595508536
21
19.322919197868647
31
0
0
LINE
5
111
100
AcDbEntity
8
0
100
AcDbLine
10
-59.113196439490359
20
-0.27297544697349352
30
0
11
-54.972051695078378
21
15.181774453456658
31
0
0
LINE
5
112
100
AcDbEntity
8
0
100
AcDbLine
10
-55.821803381239945
20
-5.4420803236394999
30
0
11
-59.962946339928322
21
-20.896937845467249
31
0
0
LINE
5
113
100
AcDbEntity
8
0
100
AcDbLine
10
-40.367051695078388
20
-9.5832255465433427
30
0
11
-55.821803381239945
21
-5.4420803236394999
31
0
0
LINE
5
114
100
AcDbEntity
8
0
100
AcDbLine
10
-44.508194653751133
20
-25.037968782595708
30
0
11
-40.367051695078388
21
-9.5832255465433427
31
0
0
LINE
5
115
100
AcDbEntity
8
0
100
AcDbLine
10
-59.962946339928322
20
-20.896937845467249
30
0
11
-44.508194653751133
21
-25.037968782595708
31
0
0
LINE
5
116
100
AcDbEntity
8
0
100
AcDbLine
10
20.575000967599397
20
-7.8750281096512698
30
0
11
20.575000967599397
21
-23.87502813945359
31
0
0
LINE
5
117
100
AcDbEntity
8
0
100
AcDbLine
10
36.575000997401723
20
-7.8750281096512698
30
0
11
20.575000967599397
21
-7.8750281096512698
31
0
0
LINE
5
118
100
AcDbEntity
8
0
100
AcDbLine
10
36.575000997401723
20
-23.87502813945359
30
0
11
36.575000997401723
21
-7.8750281096512698
31
0
0
LINE
5
119
100
AcDbEntity
8
0
100
AcDbLine
10
20.575000967599397
20
-23.87502813945359
30
0
11
36.575000997401723
21
-23.87502813945359
31
0
0
LINE
5
120
100
AcDbEntity
8
0
100
AcDbLine
10
20.575000967599397
20
14.349971890348732
30
0
11
20.575000967599397
21
-1.6500281394535854
31
0
0
LINE
5
121
100
AcDbEntity
8
0
100
AcDbLine
10
36.575000997401723
20
14.349971890348732
30
0
11
20.575000967599397
21
14.349971890348732
31
0
0
LINE
5
122
100
AcDbEntity
8
0
100
AcDbLine
10
36.575000997401723
20
-1.6500281394535854
30
0
11
36.575000997401723
21
14.349971890348732
31
0
0
LINE
5
123
100
AcDbEntity
8
0
100
AcDbLine
10
20.575000967599397
20
-1.6500281394535854
30
0
11
36.575000997401723
21
-1.6500281394535854
31
0
0
LINE
5
124
100
AcDbEntity
8
0
100
AcDbLine
10
42.800000967599402
20
20.699971890348738
30
0
11
42.800000967599402
21
4.6999718605464125
31
0
0
LINE
5
125
100
AcDbEntity
8
0
100
AcDbLine
10
42.800000967599402
20
4.6999718605464125
30
0
11
58.80000099740171
21
4.6999718605464125
31
0
0
LINE
5
126
100
AcDbEntity
8
0
100
AcDbLine
10
58.80000099740171
20
4.6999718605464125
30
0
11
58.80000099740171
21
20.699971890348738
31
0
0
LINE
5
127
100
AcDbEntity
8
0
100
AcDbLine
10
58.80000099740171
20
-1.525028109651263
30
0
11
42.800000967599402
21
-1.525028109651263
31
0
0
LINE
5
128
100
AcDbEntity
8
0
100
AcDbLine
10
42.800000967599402
20
-1.525028109651263
30
0
11
42.800000967599402
21
-17.525028139453589
31
0
0
LINE
5
129
100
AcDbEntity
8
0
100
AcDbLine
10
42.800000967599402
20
-17.525028139453589
30
0
11
58.80000099740171
21
-17.525028139453589
31
0
0
LINE
5
130
100
AcDbEntity
8
0
100
AcDbLine
10
58.80000099740171
20
-17.525028139453589
30
0
11
58.80000099740171
21
-1.525028109651263
31
0
0
LINE
5
131
100
AcDbEntity
8
0
100
AcDbLine
10
58.80000099740171
20
20.699971890348738
30
0
11
42.800000967599402
21
20.699971890348738
31
0
0
LINE
5
132
100
AcDbEntity
8
0
100
AcDbLine
10
81.025000997401705
20
20.699971890348738
30
0
11
65.025000967599397
21
20.699971890348738
31
0
0
LINE
5
133
100
AcDbEntity
8
0
100
AcDbLine
10
65.025000967599397
20
20.699971890348738
30
0
11
65.025000967599397
21
4.6999718605464125
31
0
0
LINE
5
134
100
AcDbEntity
8
0
100
AcDbLine
10
65.025000967599397
20
4.6999718605464125
30
0
11
81.025000997401705
21
4.6999718605464125
31
0
0
LINE
5
135
100
AcDbEntity
8
0
100
AcDbLine
10
81.025000997401705
20
4.6999718605464125
30
0
11
81.025000997401705
21
20.699971890348738
31
0
0
LINE
5
136
100
AcDbEntity
8
0
100
AcDbLine
10
81.025000997401705
20
-1.525028109651263
30
0
11
65.025000967599397
21
-1.525028109651263
31
0
0
LINE
5
137
100
AcDbEntity
8
0
100
AcDbLine
10
81.025000997401705
20
-17.525028139453589
30
0
11
81.025000997401705
21
-1.525028109651263
31
0
0
LINE
5
138
100
AcDbEntity
8
0
100
AcDbLine
10
65.025000967599397
20
-17.525028139453589
30
0
11
81.025000997401705
21
-17.525028139453589
31
0
0
LINE
5
139
100
AcDbEntity
8
0
100
AcDbLine
10
65.025000967599397
20
-1.525028109651263
30
0
11
65.025000967599397
21
-17.525028139453589
31
0
0
LINE
5
140
100
AcDbEntity
8
0
100
AcDbLine
10
103.25000099740171
20
-4.7000281096512708
30
0
11
87.250000967599405
21
-4.7000281096512708
31
0
0
LINE
5
141
100
AcDbEntity
8
0
100
AcDbLine
10
87.250000967599405
20
-4.7000281096512708
30
0
11
87.250000967599405
21
-20.700028139453586
31
0
0
LINE
5
142
100
AcDbEntity
8
0
100
AcDbLine
10
87.250000967599405
20
-20.700028139453586
30
0
11
103.25000099740171
21
-20.700028139453586
31
0
0
LINE
5
143
100
AcDbEntity
8
0
100
AcDbLine
10
103.25000099740171
20
-20.700028139453586
30
0
11
103.25000099740171
21
-4.7000281096512708
31
0
0
LINE
5
144
100
AcDbEntity
8
0
100
AcDbLine
10
103.25000099740171
20
1.5249718605464135
30
0
11
103.25000099740171
21
17.524971890348738
31
0
0
LINE
5
145
100
AcDbEntity
8
0
100
AcDbLine
10
103.25000099740171
20
17.524971890348738
30
0
11
87.250000967599405
21
17.524971890348738
31
0
0
LINE
5
146
100
AcDbEntity
8
0
100
AcDbLine
10
87.250000967599405
20
17.524971890348738
30
0
11
87.250000967599405
21
1.5249718605464135
31
0
0
LINE
5
147
100
AcDbEntity
8
0
100
AcDbLine
10
87.250000967599405
20
1.5249718605464135
30
0
11
103.25000099740171
21
1.5249718605464135
31
0
0
CIRCLE
5
148
100
AcDbEntity
8
0
100
AcDbCircle
10
-101.60002258766886
20
41.274957231086582
30
0
40
1.25
210
0
220
0
230
1
0
CIRCLE
5
149
100
AcDbEntity
8
0
100
AcDbCircle
10
-50.799999017499445
20
38.099971875447565
30
0
40
2
210
0
220
0
230
1
0
CIRCLE
5
150
100
AcDbEntity
8
0
100
AcDbCircle
10
-38.099999017499456
20
38.099971875447565
30
0
40
2
210
0
220
0
230
1
0
CIRCLE
5
151
100
AcDbEntity
8
0
100
AcDbCircle
10
12.700000982500567
20
41.274971875447562
30
0
40
1.25
210
0
220
0
230
1
0
CIRCLE
5
152
100
AcDbEntity
8
0
100
AcDbCircle
10
101.60006451198997
20
41.274866314868952
30
0
40
1.25
210
0
220
0
230
1
0
CIRCLE
5
153
100
AcDbEntity
8
0
100
AcDbCircle
10
101.59978409065472
20
-41.274792142545721
30
0
40
1.25
210
0
220
0
230
1
0
CIRCLE
5
154
100
AcDbEntity
8
0
100
AcDbCircle
10
9.8250057201099139e-07
20
-41.274792142545721
30
0
40
1.25
210
0
220
0
230
1
0
CIRCLE
5
155
100
AcDbEntity
8
0
100
AcDbCircle
10
-101.60000376142688
20
-41.275032868479862
30
0
40
1.25
210
0
220
0
230
1
0
CIRCLE
5
156
100
AcDbEntity
8
0
100
AcDbCircle
10
-25.399999017499439
20
38.099971875447565
30
0
40
2
210
0
220
0
230
1
0
CIRCLE
5
157
100
AcDbEntity
8
0
100
AcDbCircle
10
-12.699999017499442
20
38.099971875447565
30
0
40
2
210
0
220
0
230
1
0
LWPOLYLINE
5
158
100
AcDbEntity
8
0
100
AcDbPolyline
90
8
70
1
43
0.0
10
101.60000098250063
20
47.624971875447571
10
-101.59999901749944
20
47.624971875447571
42
0.41421356237309503
10
-107.94999901749945
20
41.274971875447562
10
-107.94999901749947
20
-41.275028124552421
42
0.41421356237309503
10
-101.59999901749947
20
-47.625028124552422
10
101.6000009825006
20
-47.625028124552429
42
0.41421356237309426
10
107.95000098250058
20
-41.275028124552414
10
107.95000098250058
20
41.274971875447577
42
0.41421356237309587
0
ENDSEC
0
SECTION
2
OBJECTS
0
DICTIONARY
5
C
100
AcDbDictionary
3
ACAD_GROUP
350
D
3
ACAD_MLINESTYLE
350
17
0
DICTIONARY
5
D
100
AcDbDictionary
0
DICTIONARY
5
1A
330
C
100
AcDbDictionary
0
DICTIONARY
5
17
100
AcDbDictionary
0
ENDSEC
0
EOF
